<svg aria-hidden="true" style="width:0;height:0;position:absolute;overflow:hidden" xmlns="http://www.w3.org/2000/svg"><defs><symbol id="icon-logo" viewBox="0 0 32 32"><path fill="#ff6e30" style="fill:var(--color1,#ff6e30)" d="M6.737 0h18.526A6.737 6.737 0 0 1 32 6.737v18.526A6.737 6.737 0 0 1 25.263 32H6.737A6.737 6.737 0 0 1 0 25.263V6.737A6.737 6.737 0 0 1 6.737 0z"/><path fill="#fff" style="fill:var(--color2,#fff)" d="M16.813 10.472c-.28 0-.552.034-.813.099a7.664 7.664 0 0 1 1.692-4.022l-.011.014c3.641.449 6.431 3.523 6.431 7.249v5.328a7.715 7.715 0 0 1-7.163-3.908l-.02-.038h3.224v-1.381a3.34 3.34 0 0 0-3.34-3.34z"/><path fill="#fff" style="fill:var(--color2,#fff)" d="M7.795 14.274a8.12 8.12 0 0 1 8.667-8.102l-.025-.001a8.474 8.474 0 0 0-2.187 6.238l-.001-.024a2.509 2.509 0 0 0-.854 1.888V14.836h1.36a8.544 8.544 0 0 0 9.281 5.507v3.453h-5.6v-3.36h-5.041v3.36h-5.6v-9.521z"/></symbol><symbol id="icon-chevron-down" viewBox="0 0 28 32"><path d="M14 26a1.99 1.99 0 0 1-1.414-.586l-12-12a2 2 0 1 1 2.828-2.828L14 21.175l10.587-10.588a2 2 0 1 1 2.828 2.828l-12 12a1.993 1.993 0 0 1-1.416.584z"/></symbol><symbol id="icon-search" viewBox="0 0 33 32"><path fill="none" style="stroke:var(--color1)" stroke-linejoin="round" stroke-linecap="round" stroke-width="2.667" d="M14.667 25.333c5.891 0 10.667-4.776 10.667-10.667S20.558 3.999 14.667 3.999v0C8.776 3.999 4 8.775 4 14.666s4.776 10.667 10.667 10.667v0zM28 28l-5.8-5.8"/></symbol><symbol id="icon-facebook" viewBox="0 0 32 32"><path fill="#fff" style="fill:var(--color1,#fff)" opacity=".78" d="M17.864 27.996V17.068h3.686l.548-4.279h-4.233v-2.726c0-1.235.344-2.08 2.116-2.08h2.246V4.168a28.833 28.833 0 0 0-3.174-.17h-.122.006c-3.258 0-5.496 1.99-5.496 5.641v3.14H9.779v4.279h3.671v10.936h4.416z"/></symbol><symbol id="icon-instagram" viewBox="0 0 32 32"><path fill="#fff" style="fill:var(--color1,#fff)" opacity=".78" d="M15.998 9.836a6.166 6.166 0 0 0 0 12.332 6.166 6.166 0 0 0 0-12.332zm0 10.168-.084.001a4.005 4.005 0 1 1 .089-8.009h-.004a4.006 4.006 0 0 1 .004 8.008h-.004zm6.41-8.957a1.438 1.438 0 0 0 0-2.876 1.438 1.438 0 0 0 0 2.876z"/><path fill="#fff" style="fill:var(--color1,#fff)" opacity=".78" d="M27.378 8.148a6.175 6.175 0 0 0-3.47-3.495l-.042-.014a8.626 8.626 0 0 0-2.905-.56h-.009c-1.284-.056-1.691-.071-4.947-.071s-3.674 0-4.947.071a8.734 8.734 0 0 0-2.972.58l.06-.02a6.17 6.17 0 0 0-3.497 3.468l-.014.042a8.613 8.613 0 0 0-.558 2.907v.009c-.057 1.282-.075 1.689-.075 4.946s0 3.671.075 4.947a8.805 8.805 0 0 0 .579 2.976l-.02-.06a6.183 6.183 0 0 0 3.47 3.496l.042.015c.86.347 1.857.564 2.899.6h.015c1.284.056 1.691.073 4.947.073s3.674 0 4.947-.073a8.804 8.804 0 0 0 2.975-.579l-.06.02a6.194 6.194 0 0 0 3.497-3.469l.015-.042a8.608 8.608 0 0 0 .558-2.906V21c.057-1.283.075-1.689.075-4.947s0-3.671-.075-4.947a8.768 8.768 0 0 0-.582-3.016l.02.06zm-1.625 12.709a6.689 6.689 0 0 1-.43 2.297l.015-.046a4.006 4.006 0 0 1-2.256 2.272l-.027.009a6.495 6.495 0 0 1-2.222.414h-.004c-1.267.059-1.624.074-4.872.074-3.251 0-3.582 0-4.874-.074a6.601 6.601 0 0 1-2.27-.429l.045.015a4 4 0 0 1-2.282-2.255l-.009-.027a6.653 6.653 0 0 1-.415-2.219v-.006c-.057-1.267-.071-1.624-.071-4.872 0-3.25 0-3.582.071-4.874a6.693 6.693 0 0 1 .415-2.249 4.003 4.003 0 0 1 2.264-2.273l.027-.009a6.561 6.561 0 0 1 2.221-.415h.005c1.268-.057 1.623-.073 4.873-.073s3.582 0 4.872.073c.802.01 1.566.161 2.272.43l-.045-.015a4.007 4.007 0 0 1 2.273 2.256l.009.027c.262.713.403 1.466.414 2.225.058 1.268.072 1.624.072 4.874 0 3.248 0 3.597-.057 4.872h-.015v-.002z"/></symbol><symbol id="icon-twitter" viewBox="0 0 32 32"><path fill="#fff" style="fill:var(--color1,#fff)" opacity=".78" d="M26.178 10.663c.017.233.017.465.017.697 0 7.1-5.404 15.282-15.28 15.282a15.18 15.18 0 0 1-8.248-2.412c.432.05.848.067 1.298.067a10.769 10.769 0 0 0 6.668-2.294 5.385 5.385 0 0 1-5.011-3.686l-.011-.038c.332.05.665.083 1.014.083a5.75 5.75 0 0 0 1.414-.182c-2.473-.513-4.305-2.674-4.305-5.262v-.076a5.413 5.413 0 0 0 2.427.682 5.368 5.368 0 0 1-2.396-4.468v-.005c0-.997.266-1.912.731-2.709 2.662 3.256 6.599 5.385 11.038 5.618l.038.002a5.947 5.947 0 0 1-.133-1.228v-.005a5.368 5.368 0 0 1 5.368-5.368h.002c1.547 0 2.943.648 3.924 1.696a10.612 10.612 0 0 0 3.456-1.324l-.048.027a5.39 5.39 0 0 1-2.338 2.947l-.024.013a10.76 10.76 0 0 0 3.16-.859l-.068.027a11.649 11.649 0 0 1-2.661 2.756l-.031.022z"/></symbol><symbol id="icon-figma" viewBox="0 0 32 32"><path fill="#19bcfe" style="fill:var(--color1,#19bcfe)" opacity=".78" d="M21.334 21.334a5.334 5.334 0 1 0-.001-10.667 5.334 5.334 0 0 0 .001 10.667z"/><path fill="#09cf83" style="fill:var(--color2,#09cf83)" opacity=".78" d="M10.666 32A5.334 5.334 0 0 0 16 26.666v-5.333H10.614a5.334 5.334 0 0 0 0 10.668h.054-.003z"/><path fill="#a259ff" style="fill:var(--color3,#a259ff)" opacity=".78" d="M10.666 21.334H16V10.667h-5.334a5.333 5.333 0 1 0 0 10.667z"/><path fill="#f24e1e" style="fill:var(--color4,#f24e1e)" opacity=".78" d="M10.666 10.666H16V0H10.614a5.333 5.333 0 1 0 0 10.667h.054-.003z"/><path fill="#ff7262" style="fill:var(--color5,#ff7262)" opacity=".78" d="M21.334 10.666H16V0h5.334a5.334 5.334 0 0 1 .003 10.666h-.003z"/></symbol><symbol id="icon-sketch" viewBox="0 0 36 32"><path fill="#fdb300" style="fill:var(--color7,#fdb300)" d="M17.965 0 7.84 1.051.001 11.384l17.965 20.541 17.965-20.542-7.839-10.332L17.967-.001z"/><path fill="#eb6c00" style="fill:var(--color8,#eb6c00)" d="m0 11.384 17.965 20.542L7.277 11.384H0zm28.653 0L17.965 31.926 35.93 11.384h-7.277z"/><path fill="#fdad00" style="fill:var(--color9,#fdad00)" d="m7.277 11.384 10.688 20.542 10.689-20.542H7.277z"/><path fill="#fdd231" style="fill:var(--color10,#fdd231)" d="m7.839 1.051-.564 10.333L17.964 0 7.839 1.051zm20.814 10.333L28.09 1.051 17.965 0l10.688 11.384z"/><path fill="#fdad00" style="fill:var(--color9,#fdad00)" d="M28.653 11.384h7.277L28.091 1.051l.563 10.333zM0 11.384h7.276l.563-10.333L0 11.384z"/><path fill="#feeeb7" style="fill:var(--color11,#feeeb7)" d="M17.965 0 7.277 11.384h21.377L17.965 0z"/></symbol><symbol id="icon-vscode" viewBox="0 0 33 32"><path fill="#0065a9" style="fill:var(--color12,#0065a9)" opacity=".78" d="M31.744 3.378 24.968.198A2.06 2.06 0 0 0 23.724.03l.012-.002a2.066 2.066 0 0 0-1.106.557L.447 20.293a1.311 1.311 0 0 0 0 1.974l.002.001 1.812 1.605c.229.203.529.332.858.346h.003c.32.014.634-.081.889-.27L30.725 4.202c.896-.662 2.184-.04 2.184 1.056v-.077c0-.377-.11-.747-.315-1.066a2.052 2.052 0 0 0-.837-.734l-.012-.005z"/><path fill="#007acc" style="fill:var(--color13,#007acc)" opacity=".78" d="m31.744 28.503-6.776 3.179a2.061 2.061 0 0 1-1.245.168l.012.002a2.066 2.066 0 0 1-1.106-.557L.446 11.587a1.311 1.311 0 0 1 0-1.974l.002-.001L2.26 8.007a1.38 1.38 0 0 1 .858-.346h.003c.32-.014.634.081.889.27l26.713 19.747c.896.662 2.184.04 2.184-1.056v.077c0 .396-.118.765-.32 1.073l.005-.008c-.209.32-.497.572-.837.734l-.012.005z"/><path fill="#1f9cf0" style="fill:var(--color14,#1f9cf0)" opacity=".78" d="M24.946 31.685a2.061 2.061 0 0 1-1.245.168l.012.002a2.073 2.073 0 0 1-1.106-.557c.758.739 2.055.215 2.055-.83V1.418c0-1.045-1.297-1.569-2.055-.829A2.056 2.056 0 0 1 23.7.034l.012-.002a2.089 2.089 0 0 1 1.245.175l-.013-.005 6.775 3.175c.352.167.64.419.845.731l.005.008c.197.301.315.67.315 1.066v21.526c0 .77-.452 1.471-1.164 1.805l-6.775 3.175z"/><path style="fill:var(--color15,#000)" opacity=".195" d="M23.321 31.744a2.092 2.092 0 0 0 1.645-.067l-.013.005 6.771-3.175a2.05 2.05 0 0 0 .844-.731l.005-.008c.206-.32.315-.689.315-1.066V5.176c0-.377-.109-.747-.315-1.066a2.056 2.056 0 0 0-.836-.734l-.012-.005L24.954.196A2.06 2.06 0 0 0 23.71.028l.012-.002a2.066 2.066 0 0 0-1.105.557L9.654 12.106 4.008 7.93a1.382 1.382 0 0 0-.827-.272c-.022 0-.044 0-.065.002h.003a1.38 1.38 0 0 0-.861.347l.001-.001L.448 9.611a1.312 1.312 0 0 0-.003 1.974l.001.001 4.896 4.353-4.896 4.352a1.311 1.311 0 0 0 0 1.974l.001.001 1.811 1.605c.229.203.529.331.858.345h.003l.062.001c.311 0 .598-.102.83-.274l-.004.003 5.646-4.176 12.962 11.523c.2.196.44.348.704.448zM24.67 8.665l-9.835 7.275 9.835 7.274V8.665z"/></symbol><symbol id="icon-notion" viewBox="0 0 32 32"><path fill="#fff" style="fill:var(--color6,#fff)" opacity=".78" d="m5.716 29.218-3.439-4.285a5.713 5.713 0 0 1-1.276-3.602V5.815c0-1.954 1.563-3.576 3.581-3.714l15.951-1.089a5.173 5.173 0 0 1 3.281.884l-.018-.012L29.4 5.673a3.59 3.59 0 0 1 1.601 2.97v17.639c0 1.913-1.538 3.497-3.512 3.618L9.785 30.99c-1.576.096-3.099-.567-4.067-1.773z"/><path style="fill:var(--color15,#000)" opacity=".78" d="M11.248 13.579v-.203c0-.515.412-.942.944-.978l3.872-.258 5.354 7.884v-6.919l-1.378-.184v-.097c0-.521.422-.951.96-.979l3.523-.18v.506a.495.495 0 0 1-.417.482h-.003l-.848.143v11.205l-1.064.366c-.889.305-1.878-.021-2.387-.789l-5.197-7.843v7.486l1.6.306-.023.148a1 1 0 0 1-.957.838l-3.979.177c-.053-.5.322-.947.839-1.001l.524-.055v-9.982l-1.363-.076z"/><path style="fill:var(--color15,#000)" opacity=".78" d="M20.675 2.967 4.724 4.056c-.955.065-1.696.833-1.696 1.759V21.33c0 .87.3 1.715.851 2.402l3.439 4.285a2.778 2.778 0 0 0 2.337 1.018l17.704-1.09c.907-.055 1.614-.783 1.614-1.662V8.644a1.649 1.649 0 0 0-.73-1.361l-.006-.004-5.604-3.789a3.091 3.091 0 0 0-1.968-.523l.01-.001zm-15.16 3.09c-.223-.165-.117-.506.162-.527l15.105-1.083a2.068 2.068 0 0 1 1.356.378l-.006-.004 3.031 2.147c.115.082.061.258-.081.265l-15.996.87a2.068 2.068 0 0 1-1.353-.405l.006.004-2.223-1.646zm2.819 4.774c0-.52.42-.949.957-.978l16.913-.921c.523-.028.964.374.964.88v15.273c0 .519-.419.948-.954.979l-16.805.956c-.582.033-1.073-.415-1.073-.978V10.831z"/></symbol><symbol id="icon-slack" viewBox="0 0 33 32"><path fill="#e01e5a" style="fill:var(--color1,#e01e5a)" opacity=".78" d="M6.836 20.11a3.31 3.31 0 0 1-.996 2.363l-.001.001a3.41 3.41 0 0 1-1.082.716l-.023.008c-.384.16-.831.253-1.299.253H3.43a3.46 3.46 0 0 1-2.409-.98l.001.001a3.357 3.357 0 0 1-.729-1.063l-.008-.022a3.24 3.24 0 0 1-.259-1.278v-.001c0-.439.087-.874.259-1.28.181-.422.43-.783.737-1.084l.001-.001a3.41 3.41 0 0 1 1.082-.716l.023-.008c.384-.16.831-.253 1.299-.253h3.409v3.343h-.001zm1.702 0a3.31 3.31 0 0 1 .995-2.364h.001a3.41 3.41 0 0 1 1.082-.716l.023-.008c.384-.16.831-.253 1.299-.253h.004a3.434 3.434 0 0 1 2.409.979h-.001c.308.302.557.662.73 1.063l.008.022c.171.405.258.84.258 1.28v8.357a3.314 3.314 0 0 1-.995 2.364l-.001.001a3.41 3.41 0 0 1-1.082.716l-.023.008c-.384.16-.831.253-1.299.253h-.004a3.448 3.448 0 0 1-2.409-.979l.001.001a3.325 3.325 0 0 1-.729-1.063l-.008-.022a3.239 3.239 0 0 1-.258-1.278v-8.359z"/><path fill="#36c5f0" style="fill:var(--color2,#36c5f0)" opacity=".78" d="M11.943 6.687a3.434 3.434 0 0 1-2.409-.98h.001a3.344 3.344 0 0 1-.73-1.063l-.008-.022a3.238 3.238 0 0 1-.258-1.277v-.003A3.31 3.31 0 0 1 9.534.977h.001a3.41 3.41 0 0 1 1.082-.716l.023-.008c.384-.16.831-.254 1.299-.254h.003a3.434 3.434 0 0 1 2.409.98h-.001c.308.302.557.662.73 1.063l.008.022c.171.405.258.84.258 1.279v3.345l-3.405-.001zm0 1.696a3.434 3.434 0 0 1 2.409.98l-.001-.001c.308.302.557.662.73 1.063l.008.022a3.288 3.288 0 0 1 0 2.559c-.181.423-.43.783-.737 1.085l-.001.001a3.426 3.426 0 0 1-1.082.716l-.023.008a3.392 3.392 0 0 1-1.3.254H3.405a3.448 3.448 0 0 1-2.409-.979l.001.001a3.357 3.357 0 0 1-.729-1.063l-.008-.022c-.164-.378-.259-.818-.259-1.28s.095-.901.267-1.3l-.008.021c.181-.423.43-.783.737-1.084l.001-.001a3.41 3.41 0 0 1 1.082-.716l.023-.008a3.394 3.394 0 0 1 1.301-.254h.003l8.538-.001z"/><path fill="#2eb67d" style="fill:var(--color3,#2eb67d)" opacity=".78" d="M25.587 11.726c0-.439.087-.874.259-1.28.181-.423.43-.783.737-1.084l.001-.001a3.402 3.402 0 0 1 1.083-.716l.023-.008c.384-.16.831-.254 1.299-.254h.005a3.434 3.434 0 0 1 2.409.98l-.001-.001c.308.302.557.662.729 1.063l.008.022a3.314 3.314 0 0 1-.737 3.644l-.001.001a3.426 3.426 0 0 1-1.082.716l-.023.008a3.392 3.392 0 0 1-1.3.254h-3.408v-3.343zm-1.703 0a3.296 3.296 0 0 1-.995 2.365l-.001.001a3.426 3.426 0 0 1-1.082.716l-.023.008a3.392 3.392 0 0 1-1.3.254h-.008a3.44 3.44 0 0 1-1.322-.262l.023.008a3.448 3.448 0 0 1-1.106-.725l.001.001a3.344 3.344 0 0 1-.73-1.063l-.008-.022a3.24 3.24 0 0 1-.259-1.278V3.344c0-.439.087-.874.259-1.28.181-.423.431-.783.738-1.084l.001-.001a3.426 3.426 0 0 1 1.082-.716l.023-.008c.384-.16.831-.254 1.299-.254h.005a3.434 3.434 0 0 1 2.409.98h-.001c.308.302.557.662.73 1.063l.008.022c.171.405.259.84.258 1.279v8.383z"/><path fill="#ecb22e" style="fill:var(--color4,#ecb22e)" opacity=".78" d="M20.48 25.123a3.456 3.456 0 0 1 2.409.979l-.001-.001c.308.302.557.662.729 1.063l.008.022c.171.405.259.84.259 1.279v.003c0 .461-.095.9-.266 1.298l.008-.021c-.181.423-.43.783-.737 1.084a3.429 3.429 0 0 1-1.082.717l-.023.008a3.394 3.394 0 0 1-1.301.254h-.003a3.434 3.434 0 0 1-2.41-.98h.001a3.325 3.325 0 0 1-.729-1.063l-.008-.022a3.238 3.238 0 0 1-.258-1.277V25.12h3.404zm0-1.67a3.448 3.448 0 0 1-2.409-.979l.001.001a3.325 3.325 0 0 1-.729-1.063l-.008-.022a3.24 3.24 0 0 1-.259-1.278v-.002c0-.439.087-.874.259-1.28.181-.422.43-.783.737-1.084l.001-.001a3.41 3.41 0 0 1 1.082-.716l.023-.008c.384-.16.831-.253 1.299-.253h8.542a3.434 3.434 0 0 1 2.409.979h-.001c.308.302.557.662.73 1.063l.008.022a3.289 3.289 0 0 1 0 2.559c-.181.423-.43.783-.737 1.084h-.001a3.429 3.429 0 0 1-1.082.717l-.023.008c-.384.16-.831.253-1.299.253h-8.542z"/></symbol><symbol id="icon-invision" viewBox="0 0 33 32"><path fill="#f06" style="fill:var(--color5,#f06)" opacity=".78" d="M0 2a2 2 0 0 1 2-2h28.5a2 2 0 0 1 2 2v27.912a2 2 0 0 1-2 2H2a2 2 0 0 1-2-2V2z"/><path fill="#fff" style="fill:var(--color6,#fff)" opacity=".78" d="M11.059 10.269c1.028-.015 1.851-.842 1.841-1.851s-.848-1.822-1.877-1.816c-1.028.005-1.859.825-1.859 1.834a1.811 1.811 0 0 0 .558 1.305 1.877 1.877 0 0 0 1.337.529zm-3.93 9.82a5.965 5.965 0 0 0-.167 1.375v.003c0 1.615.891 2.686 2.787 2.686 1.572 0 2.847-.916 3.764-2.397l-.56 2.209h3.12l1.785-7.02c.445-1.78 1.308-2.703 2.619-2.703 1.031 0 1.672.63 1.672 1.67v.049c0 .334-.051.656-.145.959l.006-.023-.919 3.229a4.63 4.63 0 0 0-.195 1.346v.023-.001c0 1.532.919 2.655 2.842 2.655 1.645 0 2.955-1.039 3.679-3.529l-1.226-.466c-.613 1.669-1.143 1.971-1.56 1.971s-.642-.273-.642-.82a3.59 3.59 0 0 1 .145-.874l-.006.025.893-3.146a6.82 6.82 0 0 0 .307-1.995c0-2.354-1.45-3.582-3.206-3.582-1.645 0-3.316 1.456-4.152 2.989l.612-2.752h-4.764l-.669 2.425h2.231l-1.373 5.393c-1.079 2.354-3.06 2.392-3.309 2.337-.408-.09-.668-.242-.668-.766.012-.424.078-.845.195-1.252l2.09-8.143H7.022l-.668 2.425h2.201l-1.423 5.702z"/></symbol><symbol id="icon-like" viewBox="0 0 32 32"><path d="M22.666 6C19.866 6 17.4 7.4 16 9.6 14.6 7.4 12.134 6 9.334 6c-4.4 0-8 3.6-8 8C1.334 21.934 16 30 16 30s14.666-8 14.666-16c0-4.4-3.6-8-8-8z"/></symbol><symbol id="icon-folder" viewBox="0 0 32 32"><path fill="#fff" style="fill:var(--color1,#fff)" opacity=".38" d="M18.667 17.333h-1.333V16a1.333 1.333 0 0 0-2.666 0v1.333h-1.333a1.333 1.333 0 0 0 0 2.666h1.333v1.333a1.333 1.333 0 0 0 2.666 0v-1.333h1.333a1.333 1.333 0 0 0 0-2.666z"/><path fill="#fff" style="fill:var(--color1,#fff)" opacity=".38" d="M26 9.399h-9.333l-3.506-4.24c-.245-.3-.614-.49-1.027-.493H5.959a3.292 3.292 0 0 0-3.292 3.237v16.19a3.295 3.295 0 0 0 3.293 3.241h.042H6h20.04c1.8 0 3.264-1.445 3.293-3.238V12.64a3.295 3.295 0 0 0-3.293-3.241h-.042H26zm.667 14.667a.613.613 0 0 1-.669.573H26 6c-.016.002-.035.002-.054.002a.613.613 0 0 1-.612-.575V7.904a.614.614 0 0 1 .669-.572h-.002 5.506l3.467 4.24c.245.3.613.491 1.027.494h10c.016-.002.035-.002.054-.002.326 0 .592.253.613.573v11.429z"/></symbol><symbol id="icon-wordpress" viewBox="0 0 141 32"><path d="M81.83 12.506h-5.554v.585c1.737 0 2.017.369 2.017 2.556v3.942c0 2.186-.279 2.587-2.017 2.587-1.334-.185-2.233-.893-3.475-2.248l-1.427-1.54c1.923-.339 2.947-1.54 2.947-2.895 0-1.693-1.457-2.987-4.188-2.987h-5.461v.585c1.737 0 2.017.369 2.017 2.556v3.942c0 2.186-.279 2.587-2.017 2.587v.585h6.174v-.585c-1.737 0-2.016-.4-2.016-2.587v-1.108h.527l3.444 4.28h9.029c4.437 0 6.361-2.34 6.361-5.143s-1.924-5.112-6.361-5.112zm-13 5.02v-4.095h1.272c1.396 0 2.017.955 2.017 2.063 0 1.078-.621 2.032-2.017 2.032H68.83zm13.093 4.281h-.217c-1.116 0-1.271-.277-1.271-1.694V13.43h1.489c3.227 0 3.816 2.34 3.816 4.157 0 1.878-.589 4.219-3.816 4.219zM47.39 18.666l2.141-6.283c.621-1.817.341-2.34-1.644-2.34v-.616h5.833v.616c-1.955 0-2.42.462-3.196 2.71l-3.538 10.532h-.403l-3.165-9.639-3.227 9.639h-.403l-3.444-10.532c-.745-2.248-1.241-2.71-3.041-2.71v-.616h6.888v.616c-1.831 0-2.328.431-1.675 2.34l2.079 6.282 3.134-9.239h.59l3.072 9.239zm10.549 4.495c-3.413 0-6.205-2.494-6.205-5.543 0-3.018 2.793-5.512 6.205-5.512s6.205 2.495 6.205 5.512c0 3.049-2.792 5.543-6.205 5.543zm0-10.1c-2.854 0-3.847 2.556-3.847 4.557 0 2.033.993 4.558 3.847 4.558 2.886 0 3.879-2.525 3.879-4.558 0-2.002-.993-4.557-3.879-4.557zm37.915 9.084v.616h-7.105v-.616c2.079 0 2.452-.523 2.452-3.603v-4.927c0-3.08-.372-3.572-2.452-3.572v-.616h6.423c3.196 0 4.964 1.632 4.964 3.819 0 2.125-1.769 3.788-4.964 3.788h-1.769v1.508c0 3.08.372 3.604 2.452 3.604zm-.683-11.61h-1.769v5.359h1.769c1.737 0 2.545-1.201 2.545-2.648 0-1.478-.807-2.71-2.545-2.71zm26.28 9.331-.155.554c-.279 1.016-.621 1.386-2.824 1.386h-.435c-1.612 0-1.892-.37-1.892-2.556v-1.417c2.42 0 2.607.215 2.607 1.817h.59v-4.589h-.59c0 1.601-.186 1.817-2.607 1.817v-3.449h1.706c2.204 0 2.545.37 2.824 1.386l.156.585h.496l-.217-2.895h-9.123v.585c1.737 0 2.017.369 2.017 2.556v3.942c0 2-.238 2.504-1.607 2.576-1.302-.197-2.196-.902-3.419-2.237l-1.428-1.54c1.924-.339 2.948-1.54 2.948-2.895 0-1.693-1.459-2.987-4.189-2.987h-5.46v.585c1.737 0 2.017.369 2.017 2.556v3.942c0 2.186-.279 2.587-2.017 2.587v.585h6.175v-.585c-1.737 0-2.017-.4-2.017-2.587V18.48h.527l3.444 4.28h12.752l.187-2.894h-.466zm-16.444-2.34v-4.095h1.272c1.396 0 2.017.955 2.017 2.063 0 1.078-.621 2.032-2.017 2.032h-1.272zm22.742 5.635c-1.241 0-2.327-.647-2.793-1.047-.155.154-.434.616-.496 1.047h-.59v-4.249h.621c.248 2.032 1.675 3.233 3.506 3.233.993 0 1.799-.554 1.799-1.478 0-.8-.713-1.417-1.985-2.001l-1.769-.831c-1.241-.586-2.172-1.602-2.172-2.957 0-1.478 1.396-2.741 3.32-2.741 1.025 0 1.892.37 2.42.801.155-.123.311-.462.404-.832h.59v3.635h-.652c-.218-1.448-1.024-2.649-2.668-2.649-.869 0-1.676.493-1.676 1.263 0 .8.652 1.231 2.142 1.909l1.705.831c1.49.708 2.079 1.848 2.079 2.772 0 1.94-1.707 3.295-3.785 3.295zm9.556 0c-1.241 0-2.327-.647-2.793-1.047-.155.154-.434.616-.496 1.047h-.589v-4.249h.62c.248 2.032 1.676 3.233 3.506 3.233.993 0 1.8-.554 1.8-1.478 0-.8-.713-1.417-1.986-2.001l-1.769-.831c-1.241-.586-2.172-1.602-2.172-2.957 0-1.478 1.396-2.741 3.32-2.741 1.024 0 1.892.37 2.42.801.155-.123.31-.462.403-.832h.59v3.635h-.652c-.217-1.448-1.024-2.649-2.668-2.649-.868 0-1.676.493-1.676 1.263 0 .8.652 1.231 2.141 1.909l1.706.831c1.489.708 2.079 1.848 2.079 2.772 0 1.94-1.706 3.295-3.785 3.295zM2.275 15.886c0 5.395 3.159 10.056 7.739 12.266L3.464 10.34a13.501 13.501 0 0 0-1.189 5.547zm23.001-.688c0-1.684-.61-2.851-1.133-3.759-.696-1.122-1.348-2.073-1.348-3.196 0-1.253.957-2.419 2.306-2.419.061 0 .118.008.178.011a13.74 13.74 0 0 0-9.273-3.577A13.743 13.743 0 0 0 4.533 8.401c.322.009.626.016.884.016 1.436 0 3.66-.173 3.66-.173.74-.043.827 1.036.088 1.123 0 0-.744.087-1.572.13l5 14.762 3.005-8.945-2.139-5.817c-.739-.043-1.44-.13-1.44-.13-.74-.043-.653-1.166.086-1.122 0 0 2.268.173 3.617.173 1.436 0 3.66-.173 3.66-.173.74-.043.828 1.035.088 1.122 0 0-.745.087-1.572.13l4.962 14.65 1.37-4.543c.594-1.885 1.046-3.239 1.046-4.405zm-9.029 1.88-4.12 11.882a13.836 13.836 0 0 0 8.439-.218 1.198 1.198 0 0 1-.098-.188l-4.221-11.477zm11.808-7.73c.059.434.093.9.093 1.401 0 1.383-.26 2.937-1.044 4.881L22.91 27.666c4.082-2.363 6.828-6.752 6.828-11.78 0-2.37-.61-4.598-1.682-6.539zM16.006 0C7.18 0 0 7.126 0 15.886c0 8.761 7.181 15.887 16.006 15.887s16.007-7.126 16.007-15.887C32.013 7.126 24.831 0 16.006 0zm0 31.045c-8.421 0-15.273-6.8-15.273-15.159S7.584.728 16.006.728c8.421 0 15.272 6.8 15.272 15.158s-6.851 15.159-15.272 15.159z"/></symbol><symbol id="icon-clients-slack" viewBox="0 0 127 32"><path d="m40.481 25.079 1.58-3.652c1.708 1.268 3.977 1.927 6.22 1.927 1.657 0 2.702-.634 2.702-1.598-.026-2.688-9.916-.583-9.993-7.329-.025-3.423 3.034-6.061 7.367-6.061 2.575 0 5.149.634 6.985 2.079l-1.479 3.728c-1.682-1.065-3.773-1.826-5.761-1.826-1.351 0-2.243.634-2.243 1.445.026 2.637 9.993 1.192 10.095 7.633 0 3.5-2.982 5.959-7.265 5.959-3.136 0-6.016-.736-8.208-2.308zm60.645-4.97 4.359 2.409a9.512 9.512 0 0 1-8.336 4.869c-5.277 0-9.559-4.26-9.559-9.509s4.283-9.509 9.559-9.509a9.593 9.593 0 0 1 8.336 4.869l-4.359 2.409a4.591 4.591 0 0 0-3.977-2.307c-2.523 0-4.563 2.029-4.563 4.539s2.04 4.539 4.563 4.539a4.59 4.59 0 0 0 3.977-2.308h.001zM58.147.482h5.455v26.55h-5.455V.482zm49.479 0h5.456v15.595l6.169-7.329h6.679l-7.622 8.825 8.234 9.459h-6.984l-6.475-7.962v7.962h-5.456V.482zM79.815 20.16v-4.489c-.79-1.319-2.422-2.333-4.257-2.333-2.524 0-4.563 2.029-4.563 4.539s2.039 4.539 4.563 4.539c1.835 0 3.466-.964 4.257-2.257zm0-11.411h5.456v18.258h-5.456v-2.155c-.892 1.496-3.11 2.536-5.43 2.536-4.793 0-8.566-4.26-8.566-9.535s3.773-9.484 8.566-9.484c2.32 0 4.537 1.04 5.43 2.536V8.749zM6.755 20.134a3.353 3.353 0 0 1-3.365 3.347 3.384 3.384 0 0 1-2.38-.98 3.338 3.338 0 0 1-.984-2.368 3.353 3.353 0 0 1 3.365-3.347h3.365v3.347zm1.683 0c0-1.851 1.504-3.347 3.365-3.347s3.365 1.496 3.365 3.347v8.368a3.353 3.353 0 0 1-3.365 3.347 3.384 3.384 0 0 1-2.38-.98 3.338 3.338 0 0 1-.984-2.367v-8.368zm3.365-13.439a3.384 3.384 0 0 1-2.38-.98 3.338 3.338 0 0 1-.984-2.367c0-1.851 1.504-3.347 3.365-3.347s3.365 1.496 3.365 3.347v3.347h-3.365zm0 1.699c1.861 0 3.365 1.496 3.365 3.347s-1.504 3.347-3.365 3.347H3.365a3.384 3.384 0 0 1-2.38-.98 3.338 3.338 0 0 1-.984-2.367 3.353 3.353 0 0 1 3.365-3.347h8.438zm13.485 3.347c0-1.851 1.504-3.347 3.365-3.347s3.365 1.496 3.365 3.347-1.504 3.347-3.365 3.347h-3.365v-3.347zm-1.683 0a3.353 3.353 0 0 1-3.365 3.347 3.384 3.384 0 0 1-2.38-.98 3.338 3.338 0 0 1-.984-2.367V3.347C16.876 1.496 18.38 0 20.241 0s3.365 1.496 3.365 3.347v8.394zM20.24 25.155c1.861 0 3.365 1.496 3.365 3.347s-1.504 3.347-3.365 3.347a3.384 3.384 0 0 1-2.38-.98 3.332 3.332 0 0 1-.984-2.368v-3.347h3.365zm0-1.673a3.384 3.384 0 0 1-2.38-.98 3.338 3.338 0 0 1-.984-2.367 3.353 3.353 0 0 1 3.365-3.347h8.438c1.861 0 3.365 1.496 3.365 3.347s-1.504 3.347-3.365 3.347h-8.438z"/></symbol><symbol id="icon-google" viewBox="0 0 99 32"><path d="m95.442 19.557 2.733 1.804c-.887 1.293-3.009 3.512-6.677 3.512-4.554 0-7.946-3.489-7.946-7.926 0-4.723 3.428-7.926 7.563-7.926 4.159 0 6.197 3.275 6.856 5.043l.36.902-10.715 4.39c.814 1.59 2.086 2.397 3.883 2.397 1.798 0 3.044-.878 3.944-2.195zm-8.402-2.86 7.155-2.943c-.396-.985-1.57-1.685-2.973-1.685-1.786 0-4.267 1.566-4.183 4.628zM78.386.939h3.452v23.209h-3.452V.939zm-5.442 8.698h3.332v14.097c0 5.85-3.487 8.259-7.611 8.259-3.883 0-6.22-2.587-7.095-4.687l3.056-1.258c.551 1.293 1.882 2.824 4.039 2.824 2.649 0 4.279-1.626 4.279-4.663V23.07h-.12c-.791.949-2.302 1.803-4.219 1.803-4.003 0-7.671-3.453-7.671-7.902 0-4.474 3.668-7.962 7.671-7.962 1.906 0 3.428.842 4.219 1.768h.12V9.638zm.24 7.333c0-2.8-1.882-4.841-4.279-4.841-2.421 0-4.459 2.041-4.459 4.841 0 2.765 2.038 4.77 4.459 4.77 2.397.012 4.279-2.005 4.279-4.77zm-31.199-.059c0 4.568-3.596 7.926-8.006 7.926s-8.006-3.37-8.006-7.926c0-4.592 3.596-7.938 8.006-7.938s8.006 3.346 8.006 7.938zm-3.5 0c0-2.848-2.086-4.806-4.507-4.806s-4.507 1.958-4.507 4.806c0 2.824 2.086 4.806 4.507 4.806s4.507-1.982 4.507-4.806zm20.987.035c0 4.568-3.596 7.926-8.006 7.926s-8.006-3.358-8.006-7.926c0-4.592 3.596-7.926 8.006-7.926s8.006 3.322 8.006 7.926zm-3.512 0c0-2.848-2.085-4.806-4.507-4.806s-4.507 1.958-4.507 4.806c0 2.824 2.086 4.806 4.507 4.806 2.433 0 4.507-1.994 4.507-4.806zm-43.148 4.45c-5.022 0-8.953-4.011-8.953-8.982s3.931-8.982 8.953-8.982c2.709 0 4.686 1.056 6.149 2.409l2.409-2.385C19.332 1.522 16.612.05 12.812.05 5.932.05.143 5.604.143 12.414s5.789 12.364 12.669 12.364c3.716 0 6.52-1.21 8.714-3.465 2.253-2.231 2.948-5.363 2.948-7.903 0-.795-.096-1.614-.204-2.219H12.812v3.299h8.162c-.24 2.065-.899 3.477-1.87 4.438-1.175 1.175-3.032 2.468-6.292 2.468z"/></symbol><symbol id="icon-microsoft" viewBox="0 0 147 32"><path d="M147.012 14.381v-2.619h-3.211V7.691l-.108.034-3.075.953v3.085h-4.76v-1.718c0-.8.177-1.413.525-1.821.345-.404.84-.609 1.47-.609.453 0 .923.108 1.395.322l.119.053V5.232l-.056-.021c-.441-.161-1.041-.241-1.784-.241-.936 0-1.787.207-2.53.616s-1.326.994-1.736 1.738c-.408.743-.614 1.601-.614 2.55v1.889h-2.236v2.619h2.236v11.032h3.209V14.382h4.76v7.011c0 2.888 1.345 4.351 3.996 4.351a6.5 6.5 0 0 0 1.363-.153c.477-.104.801-.208.992-.319l.043-.025v-2.643l-.131.087a2.207 2.207 0 0 1-.645.285 2.41 2.41 0 0 1-.634.109c-.621 0-1.08-.17-1.366-.504-.289-.337-.434-.928-.434-1.754v-6.445h3.211zm-23.766 8.704c-1.164 0-2.083-.392-2.73-1.162-.651-.775-.981-1.879-.981-3.282 0-1.447.33-2.58.981-3.369.648-.783 1.557-1.181 2.704-1.181 1.113 0 1.999.38 2.633 1.129.638.753.962 1.877.962 3.342 0 1.482-.305 2.621-.904 3.383-.597.756-1.493 1.14-2.664 1.14zm.143-11.651c-2.222 0-3.988.659-5.246 1.96s-1.896 3.101-1.896 5.352c0 2.137.622 3.857 1.851 5.109s2.898 1.888 4.965 1.888c2.155 0 3.885-.669 5.143-1.988s1.895-3.101 1.895-5.299c0-2.171-.598-3.903-1.778-5.147-1.181-1.245-2.841-1.876-4.935-1.876zm-12.316 0c-1.512 0-2.762.392-3.717 1.164-.961.777-1.448 1.796-1.448 3.029 0 .641.105 1.21.312 1.693a3.4 3.4 0 0 0 .959 1.269c.425.355 1.081.727 1.95 1.106.731.305 1.276.562 1.622.765.339.199.579.399.715.594.132.191.199.451.199.774 0 .917-.678 1.363-2.073 1.363-.517 0-1.108-.109-1.755-.325a6.581 6.581 0 0 1-1.797-.923l-.133-.097v3.13l.049.023c.454.212 1.027.391 1.701.532s1.285.213 1.817.213c1.64 0 2.962-.394 3.925-1.171.97-.782 1.462-1.825 1.462-3.101 0-.92-.265-1.709-.786-2.346-.518-.631-1.417-1.211-2.672-1.723-.999-.406-1.639-.743-1.903-1.002-.254-.25-.384-.604-.384-1.051 0-.397.16-.715.488-.973.33-.259.789-.391 1.365-.391.535 0 1.082.085 1.626.253s1.022.392 1.42.667l.131.091v-2.969l-.05-.022c-.368-.16-.853-.296-1.442-.407a8.7 8.7 0 0 0-1.581-.165zM97.541 23.085c-1.165 0-2.083-.391-2.731-1.162-.651-.775-.981-1.879-.981-3.282 0-1.447.33-2.58.981-3.369.647-.783 1.557-1.181 2.704-1.181 1.112 0 1.998.38 2.633 1.129.637.753.961 1.877.961 3.342 0 1.482-.304 2.621-.904 3.383-.596.756-1.492 1.14-2.664 1.14zm.143-11.651c-2.223 0-3.989.659-5.246 1.96s-1.896 3.101-1.896 5.352c0 2.138.623 3.857 1.851 5.109s2.899 1.888 4.966 1.888c2.154 0 3.884-.669 5.142-1.988s1.896-3.101 1.896-5.299c0-2.171-.598-3.903-1.778-5.147s-2.841-1.876-4.934-1.876zM85.67 14.127v-2.364H82.5v13.651h3.17v-6.983c0-1.188.266-2.163.79-2.9.518-.728 1.208-1.097 2.05-1.097.286 0 .606.047.953.142.344.094.593.195.74.303l.133.098V11.74l-.051-.022c-.296-.127-.713-.191-1.242-.191-.796 0-1.509.259-2.12.77-.536.449-.923 1.064-1.22 1.831h-.034zm-8.847-2.693c-1.455 0-2.752.316-3.856.938a6.28 6.28 0 0 0-2.542 2.648c-.579 1.131-.873 2.451-.873 3.923 0 1.29.285 2.473.848 3.517a6.006 6.006 0 0 0 2.372 2.429c1.009.566 2.175.854 3.466.854 1.506 0 2.793-.305 3.824-.907l.042-.024V21.87l-.133.099a5.954 5.954 0 0 1-1.551.818c-.56.198-1.071.298-1.519.298-1.243 0-2.242-.395-2.967-1.172-.727-.778-1.095-1.871-1.095-3.247 0-1.384.384-2.505 1.141-3.332.754-.824 1.755-1.243 2.973-1.243 1.042 0 2.057.357 3.018 1.063l.133.098v-3.1l-.043-.025c-.361-.205-.854-.374-1.467-.502a8.65 8.65 0 0 0-1.772-.193h.001zm-9.455.329h-3.17v13.651h3.17V11.763zm-1.553-5.816a1.9 1.9 0 0 0-1.351.536 1.784 1.784 0 0 0-.566 1.339c0 .523.188.965.56 1.313.369.347.826.523 1.356.523s.989-.176 1.363-.523c.376-.348.567-.79.567-1.313 0-.513-.186-.959-.552-1.325s-.829-.551-1.378-.551zm-7.909 4.808v14.658h3.235V6.365h-4.477l-5.692 14.148-5.523-14.148h-4.66v19.048h3.04v-14.66h.105l5.833 14.659h2.294l5.741-14.658h.105zm-42.992 4.351H0V0h14.914v15.106zm16.466 0H16.467V0H31.38v15.106zM14.913 31.791H0V16.685h14.913v15.106zm16.467 0H16.467V16.685H31.38v15.106z"/></symbol></defs></svg>