<svg aria-hidden="true" style="width:0;height:0;position:absolute;overflow:hidden" xmlns="http://www.w3.org/2000/svg"><defs><symbol id="icon-logo" viewBox="0 0 32 32"><path fill="#ff6e30" style="fill:var(--color1,#ff6e30)" d="M6.737 0h18.526A6.737 6.737 0 0 1 32 6.737v18.526A6.737 6.737 0 0 1 25.263 32H6.737A6.737 6.737 0 0 1 0 25.263V6.737A6.737 6.737 0 0 1 6.737 0z"/><path fill="#fff" style="fill:var(--color2,#fff)" d="M16.813 10.472c-.28 0-.552.034-.813.099a7.664 7.664 0 0 1 1.692-4.022l-.011.014c3.641.449 6.431 3.523 6.431 7.249v5.328a7.715 7.715 0 0 1-7.163-3.908l-.02-.038h3.224v-1.381a3.34 3.34 0 0 0-3.34-3.34z"/><path fill="#fff" style="fill:var(--color2,#fff)" d="M7.795 14.274a8.12 8.12 0 0 1 8.667-8.102l-.025-.001a8.474 8.474 0 0 0-2.187 6.238l-.001-.024a2.509 2.509 0 0 0-.854 1.888V14.836h1.36a8.544 8.544 0 0 0 9.281 5.507v3.453h-5.6v-3.36h-5.041v3.36h-5.6v-9.521z"/></symbol><symbol id="icon-chevron-down" viewBox="0 0 28 32"><path d="M14 26a1.99 1.99 0 0 1-1.414-.586l-12-12a2 2 0 1 1 2.828-2.828L14 21.175l10.587-10.588a2 2 0 1 1 2.828 2.828l-12 12a1.993 1.993 0 0 1-1.416.584z"/></symbol><symbol id="icon-search" viewBox="0 0 33 32"><path fill="none" style="stroke:var(--color1)" stroke-linejoin="round" stroke-linecap="round" stroke-width="2.667" d="M14.667 25.333c5.891 0 10.667-4.776 10.667-10.667S20.558 3.999 14.667 3.999v0C8.776 3.999 4 8.775 4 14.666s4.776 10.667 10.667 10.667v0zM28 28l-5.8-5.8"/></symbol><symbol id="icon-facebook" viewBox="0 0 32 32"><path fill="#fff" style="fill:var(--color1,#fff)" opacity=".78" d="M17.864 27.996V17.068h3.686l.548-4.279h-4.233v-2.726c0-1.235.344-2.08 2.116-2.08h2.246V4.168a28.833 28.833 0 0 0-3.174-.17h-.122.006c-3.258 0-5.496 1.99-5.496 5.641v3.14H9.779v4.279h3.671v10.936h4.416z"/></symbol><symbol id="icon-instagram" viewBox="0 0 32 32"><path fill="#fff" style="fill:var(--color1,#fff)" opacity=".78" d="M15.998 9.836a6.166 6.166 0 0 0 0 12.332 6.166 6.166 0 0 0 0-12.332zm0 10.168-.084.001a4.005 4.005 0 1 1 .089-8.009h-.004a4.006 4.006 0 0 1 .004 8.008h-.004zm6.41-8.957a1.438 1.438 0 0 0 0-2.876 1.438 1.438 0 0 0 0 2.876z"/><path fill="#fff" style="fill:var(--color1,#fff)" opacity=".78" d="M27.378 8.148a6.175 6.175 0 0 0-3.47-3.495l-.042-.014a8.626 8.626 0 0 0-2.905-.56h-.009c-1.284-.056-1.691-.071-4.947-.071s-3.674 0-4.947.071a8.734 8.734 0 0 0-2.972.58l.06-.02a6.17 6.17 0 0 0-3.497 3.468l-.014.042a8.613 8.613 0 0 0-.558 2.907v.009c-.057 1.282-.075 1.689-.075 4.946s0 3.671.075 4.947a8.805 8.805 0 0 0 .579 2.976l-.02-.06a6.183 6.183 0 0 0 3.47 3.496l.042.015c.86.347 1.857.564 2.899.6h.015c1.284.056 1.691.073 4.947.073s3.674 0 4.947-.073a8.804 8.804 0 0 0 2.975-.579l-.06.02a6.194 6.194 0 0 0 3.497-3.469l.015-.042a8.608 8.608 0 0 0 .558-2.906V21c.057-1.283.075-1.689.075-4.947s0-3.671-.075-4.947a8.768 8.768 0 0 0-.582-3.016l.02.06zm-1.625 12.709a6.689 6.689 0 0 1-.43 2.297l.015-.046a4.006 4.006 0 0 1-2.256 2.272l-.027.009a6.495 6.495 0 0 1-2.222.414h-.004c-1.267.059-1.624.074-4.872.074-3.251 0-3.582 0-4.874-.074a6.601 6.601 0 0 1-2.27-.429l.045.015a4 4 0 0 1-2.282-2.255l-.009-.027a6.653 6.653 0 0 1-.415-2.219v-.006c-.057-1.267-.071-1.624-.071-4.872 0-3.25 0-3.582.071-4.874a6.693 6.693 0 0 1 .415-2.249 4.003 4.003 0 0 1 2.264-2.273l.027-.009a6.561 6.561 0 0 1 2.221-.415h.005c1.268-.057 1.623-.073 4.873-.073s3.582 0 4.872.073c.802.01 1.566.161 2.272.43l-.045-.015a4.007 4.007 0 0 1 2.273 2.256l.009.027c.262.713.403 1.466.414 2.225.058 1.268.072 1.624.072 4.874 0 3.248 0 3.597-.057 4.872h-.015v-.002z"/></symbol><symbol id="icon-twitter" viewBox="0 0 32 32"><path fill="#fff" style="fill:var(--color1,#fff)" opacity=".78" d="M26.178 10.663c.017.233.017.465.017.697 0 7.1-5.404 15.282-15.28 15.282a15.18 15.18 0 0 1-8.248-2.412c.432.05.848.067 1.298.067a10.769 10.769 0 0 0 6.668-2.294 5.385 5.385 0 0 1-5.011-3.686l-.011-.038c.332.05.665.083 1.014.083a5.75 5.75 0 0 0 1.414-.182c-2.473-.513-4.305-2.674-4.305-5.262v-.076a5.413 5.413 0 0 0 2.427.682 5.368 5.368 0 0 1-2.396-4.468v-.005c0-.997.266-1.912.731-2.709 2.662 3.256 6.599 5.385 11.038 5.618l.038.002a5.947 5.947 0 0 1-.133-1.228v-.005a5.368 5.368 0 0 1 5.368-5.368h.002c1.547 0 2.943.648 3.924 1.696a10.612 10.612 0 0 0 3.456-1.324l-.048.027a5.39 5.39 0 0 1-2.338 2.947l-.024.013a10.76 10.76 0 0 0 3.16-.859l-.068.027a11.649 11.649 0 0 1-2.661 2.756l-.031.022z"/></symbol><symbol id="icon-figma" viewBox="0 0 32 32"><path fill="#19bcfe" style="fill:var(--color1,#19bcfe)" opacity=".78" d="M21.334 21.334a5.334 5.334 0 1 0-.001-10.667 5.334 5.334 0 0 0 .001 10.667z"/><path fill="#09cf83" style="fill:var(--color2,#09cf83)" opacity=".78" d="M10.666 32A5.334 5.334 0 0 0 16 26.666v-5.333H10.614a5.334 5.334 0 0 0 0 10.668h.054-.003z"/><path fill="#a259ff" style="fill:var(--color3,#a259ff)" opacity=".78" d="M10.666 21.334H16V10.667h-5.334a5.333 5.333 0 1 0 0 10.667z"/><path fill="#f24e1e" style="fill:var(--color4,#f24e1e)" opacity=".78" d="M10.666 10.666H16V0H10.614a5.333 5.333 0 1 0 0 10.667h.054-.003z"/><path fill="#ff7262" style="fill:var(--color5,#ff7262)" opacity=".78" d="M21.334 10.666H16V0h5.334a5.334 5.334 0 0 1 .003 10.666h-.003z"/></symbol><symbol id="icon-sketch" viewBox="0 0 36 32"><path fill="#fdb300" style="fill:var(--color7,#fdb300)" d="M17.965 0 7.84 1.051.001 11.384l17.965 20.541 17.965-20.542-7.839-10.332L17.967-.001z"/><path fill="#eb6c00" style="fill:var(--color8,#eb6c00)" d="m0 11.384 17.965 20.542L7.277 11.384H0zm28.653 0L17.965 31.926 35.93 11.384h-7.277z"/><path fill="#fdad00" style="fill:var(--color9,#fdad00)" d="m7.277 11.384 10.688 20.542 10.689-20.542H7.277z"/><path fill="#fdd231" style="fill:var(--color10,#fdd231)" d="m7.839 1.051-.564 10.333L17.964 0 7.839 1.051zm20.814 10.333L28.09 1.051 17.965 0l10.688 11.384z"/><path fill="#fdad00" style="fill:var(--color9,#fdad00)" d="M28.653 11.384h7.277L28.091 1.051l.563 10.333zM0 11.384h7.276l.563-10.333L0 11.384z"/><path fill="#feeeb7" style="fill:var(--color11,#feeeb7)" d="M17.965 0 7.277 11.384h21.377L17.965 0z"/></symbol><symbol id="icon-vscode" viewBox="0 0 33 32"><path fill="#0065a9" style="fill:var(--color12,#0065a9)" opacity=".78" d="M31.744 3.378 24.968.198A2.06 2.06 0 0 0 23.724.03l.012-.002a2.066 2.066 0 0 0-1.106.557L.447 20.293a1.311 1.311 0 0 0 0 1.974l.002.001 1.812 1.605c.229.203.529.332.858.346h.003c.32.014.634-.081.889-.27L30.725 4.202c.896-.662 2.184-.04 2.184 1.056v-.077c0-.377-.11-.747-.315-1.066a2.052 2.052 0 0 0-.837-.734l-.012-.005z"/><path fill="#007acc" style="fill:var(--color13,#007acc)" opacity=".78" d="m31.744 28.503-6.776 3.179a2.061 2.061 0 0 1-1.245.168l.012.002a2.066 2.066 0 0 1-1.106-.557L.446 11.587a1.311 1.311 0 0 1 0-1.974l.002-.001L2.26 8.007a1.38 1.38 0 0 1 .858-.346h.003c.32-.014.634.081.889.27l26.713 19.747c.896.662 2.184.04 2.184-1.056v.077c0 .396-.118.765-.32 1.073l.005-.008c-.209.32-.497.572-.837.734l-.012.005z"/><path fill="#1f9cf0" style="fill:var(--color14,#1f9cf0)" opacity=".78" d="M24.946 31.685a2.061 2.061 0 0 1-1.245.168l.012.002a2.073 2.073 0 0 1-1.106-.557c.758.739 2.055.215 2.055-.83V1.418c0-1.045-1.297-1.569-2.055-.829A2.056 2.056 0 0 1 23.7.034l.012-.002a2.089 2.089 0 0 1 1.245.175l-.013-.005 6.775 3.175c.352.167.64.419.845.731l.005.008c.197.301.315.67.315 1.066v21.526c0 .77-.452 1.471-1.164 1.805l-6.775 3.175z"/><path style="fill:var(--color15,#000)" opacity=".195" d="M23.321 31.744a2.092 2.092 0 0 0 1.645-.067l-.013.005 6.771-3.175a2.05 2.05 0 0 0 .844-.731l.005-.008c.206-.32.315-.689.315-1.066V5.176c0-.377-.109-.747-.315-1.066a2.056 2.056 0 0 0-.836-.734l-.012-.005L24.954.196A2.06 2.06 0 0 0 23.71.028l.012-.002a2.066 2.066 0 0 0-1.105.557L9.654 12.106 4.008 7.93a1.382 1.382 0 0 0-.827-.272c-.022 0-.044 0-.065.002h.003a1.38 1.38 0 0 0-.861.347l.001-.001L.448 9.611a1.312 1.312 0 0 0-.003 1.974l.001.001 4.896 4.353-4.896 4.352a1.311 1.311 0 0 0 0 1.974l.001.001 1.811 1.605c.229.203.529.331.858.345h.003l.062.001c.311 0 .598-.102.83-.274l-.004.003 5.646-4.176 12.962 11.523c.2.196.44.348.704.448zM24.67 8.665l-9.835 7.275 9.835 7.274V8.665z"/></symbol><symbol id="icon-notion" viewBox="0 0 32 32"><path fill="#fff" style="fill:var(--color6,#fff)" opacity=".78" d="m5.716 29.218-3.439-4.285a5.713 5.713 0 0 1-1.276-3.602V5.815c0-1.954 1.563-3.576 3.581-3.714l15.951-1.089a5.173 5.173 0 0 1 3.281.884l-.018-.012L29.4 5.673a3.59 3.59 0 0 1 1.601 2.97v17.639c0 1.913-1.538 3.497-3.512 3.618L9.785 30.99c-1.576.096-3.099-.567-4.067-1.773z"/><path style="fill:var(--color15,#000)" opacity=".78" d="M11.248 13.579v-.203c0-.515.412-.942.944-.978l3.872-.258 5.354 7.884v-6.919l-1.378-.184v-.097c0-.521.422-.951.96-.979l3.523-.18v.506a.495.495 0 0 1-.417.482h-.003l-.848.143v11.205l-1.064.366c-.889.305-1.878-.021-2.387-.789l-5.197-7.843v7.486l1.6.306-.023.148a1 1 0 0 1-.957.838l-3.979.177c-.053-.5.322-.947.839-1.001l.524-.055v-9.982l-1.363-.076z"/><path style="fill:var(--color15,#000)" opacity=".78" d="M20.675 2.967 4.724 4.056c-.955.065-1.696.833-1.696 1.759V21.33c0 .87.3 1.715.851 2.402l3.439 4.285a2.778 2.778 0 0 0 2.337 1.018l17.704-1.09c.907-.055 1.614-.783 1.614-1.662V8.644a1.649 1.649 0 0 0-.73-1.361l-.006-.004-5.604-3.789a3.091 3.091 0 0 0-1.968-.523l.01-.001zm-15.16 3.09c-.223-.165-.117-.506.162-.527l15.105-1.083a2.068 2.068 0 0 1 1.356.378l-.006-.004 3.031 2.147c.115.082.061.258-.081.265l-15.996.87a2.068 2.068 0 0 1-1.353-.405l.006.004-2.223-1.646zm2.819 4.774c0-.52.42-.949.957-.978l16.913-.921c.523-.028.964.374.964.88v15.273c0 .519-.419.948-.954.979l-16.805.956c-.582.033-1.073-.415-1.073-.978V10.831z"/></symbol><symbol id="icon-slack" viewBox="0 0 33 32"><path fill="#e01e5a" style="fill:var(--color1,#e01e5a)" opacity=".78" d="M6.836 20.11a3.31 3.31 0 0 1-.996 2.363l-.001.001a3.41 3.41 0 0 1-1.082.716l-.023.008c-.384.16-.831.253-1.299.253H3.43a3.46 3.46 0 0 1-2.409-.98l.001.001a3.357 3.357 0 0 1-.729-1.063l-.008-.022a3.24 3.24 0 0 1-.259-1.278v-.001c0-.439.087-.874.259-1.28.181-.422.43-.783.737-1.084l.001-.001a3.41 3.41 0 0 1 1.082-.716l.023-.008c.384-.16.831-.253 1.299-.253h3.409v3.343h-.001zm1.702 0a3.31 3.31 0 0 1 .995-2.364h.001a3.41 3.41 0 0 1 1.082-.716l.023-.008c.384-.16.831-.253 1.299-.253h.004a3.434 3.434 0 0 1 2.409.979h-.001c.308.302.557.662.73 1.063l.008.022c.171.405.258.84.258 1.28v8.357a3.314 3.314 0 0 1-.995 2.364l-.001.001a3.41 3.41 0 0 1-1.082.716l-.023.008c-.384.16-.831.253-1.299.253h-.004a3.448 3.448 0 0 1-2.409-.979l.001.001a3.325 3.325 0 0 1-.729-1.063l-.008-.022a3.239 3.239 0 0 1-.258-1.278v-8.359z"/><path fill="#36c5f0" style="fill:var(--color2,#36c5f0)" opacity=".78" d="M11.943 6.687a3.434 3.434 0 0 1-2.409-.98h.001a3.344 3.344 0 0 1-.73-1.063l-.008-.022a3.238 3.238 0 0 1-.258-1.277v-.003A3.31 3.31 0 0 1 9.534.977h.001a3.41 3.41 0 0 1 1.082-.716l.023-.008c.384-.16.831-.254 1.299-.254h.003a3.434 3.434 0 0 1 2.409.98h-.001c.308.302.557.662.73 1.063l.008.022c.171.405.258.84.258 1.279v3.345l-3.405-.001zm0 1.696a3.434 3.434 0 0 1 2.409.98l-.001-.001c.308.302.557.662.73 1.063l.008.022a3.288 3.288 0 0 1 0 2.559c-.181.423-.43.783-.737 1.085l-.001.001a3.426 3.426 0 0 1-1.082.716l-.023.008a3.392 3.392 0 0 1-1.3.254H3.405a3.448 3.448 0 0 1-2.409-.979l.001.001a3.357 3.357 0 0 1-.729-1.063l-.008-.022c-.164-.378-.259-.818-.259-1.28s.095-.901.267-1.3l-.008.021c.181-.423.43-.783.737-1.084l.001-.001a3.41 3.41 0 0 1 1.082-.716l.023-.008a3.394 3.394 0 0 1 1.301-.254h.003l8.538-.001z"/><path fill="#2eb67d" style="fill:var(--color3,#2eb67d)" opacity=".78" d="M25.587 11.726c0-.439.087-.874.259-1.28.181-.423.43-.783.737-1.084l.001-.001a3.402 3.402 0 0 1 1.083-.716l.023-.008c.384-.16.831-.254 1.299-.254h.005a3.434 3.434 0 0 1 2.409.98l-.001-.001c.308.302.557.662.729 1.063l.008.022a3.314 3.314 0 0 1-.737 3.644l-.001.001a3.426 3.426 0 0 1-1.082.716l-.023.008a3.392 3.392 0 0 1-1.3.254h-3.408v-3.343zm-1.703 0a3.296 3.296 0 0 1-.995 2.365l-.001.001a3.426 3.426 0 0 1-1.082.716l-.023.008a3.392 3.392 0 0 1-1.3.254h-.008a3.44 3.44 0 0 1-1.322-.262l.023.008a3.448 3.448 0 0 1-1.106-.725l.001.001a3.344 3.344 0 0 1-.73-1.063l-.008-.022a3.24 3.24 0 0 1-.259-1.278V3.344c0-.439.087-.874.259-1.28.181-.423.431-.783.738-1.084l.001-.001a3.426 3.426 0 0 1 1.082-.716l.023-.008c.384-.16.831-.254 1.299-.254h.005a3.434 3.434 0 0 1 2.409.98h-.001c.308.302.557.662.73 1.063l.008.022c.171.405.259.84.258 1.279v8.383z"/><path fill="#ecb22e" style="fill:var(--color4,#ecb22e)" opacity=".78" d="M20.48 25.123a3.456 3.456 0 0 1 2.409.979l-.001-.001c.308.302.557.662.729 1.063l.008.022c.171.405.259.84.259 1.279v.003c0 .461-.095.9-.266 1.298l.008-.021c-.181.423-.43.783-.737 1.084a3.429 3.429 0 0 1-1.082.717l-.023.008a3.394 3.394 0 0 1-1.301.254h-.003a3.434 3.434 0 0 1-2.41-.98h.001a3.325 3.325 0 0 1-.729-1.063l-.008-.022a3.238 3.238 0 0 1-.258-1.277V25.12h3.404zm0-1.67a3.448 3.448 0 0 1-2.409-.979l.001.001a3.325 3.325 0 0 1-.729-1.063l-.008-.022a3.24 3.24 0 0 1-.259-1.278v-.002c0-.439.087-.874.259-1.28.181-.422.43-.783.737-1.084l.001-.001a3.41 3.41 0 0 1 1.082-.716l.023-.008c.384-.16.831-.253 1.299-.253h8.542a3.434 3.434 0 0 1 2.409.979h-.001c.308.302.557.662.73 1.063l.008.022a3.289 3.289 0 0 1 0 2.559c-.181.423-.43.783-.737 1.084h-.001a3.429 3.429 0 0 1-1.082.717l-.023.008c-.384.16-.831.253-1.299.253h-8.542z"/></symbol><symbol id="icon-invision" viewBox="0 0 33 32"><path fill="#f06" style="fill:var(--color5,#f06)" opacity=".78" d="M0 2a2 2 0 0 1 2-2h28.5a2 2 0 0 1 2 2v27.912a2 2 0 0 1-2 2H2a2 2 0 0 1-2-2V2z"/><path fill="#fff" style="fill:var(--color6,#fff)" opacity=".78" d="M11.059 10.269c1.028-.015 1.851-.842 1.841-1.851s-.848-1.822-1.877-1.816c-1.028.005-1.859.825-1.859 1.834a1.811 1.811 0 0 0 .558 1.305 1.877 1.877 0 0 0 1.337.529zm-3.93 9.82a5.965 5.965 0 0 0-.167 1.375v.003c0 1.615.891 2.686 2.787 2.686 1.572 0 2.847-.916 3.764-2.397l-.56 2.209h3.12l1.785-7.02c.445-1.78 1.308-2.703 2.619-2.703 1.031 0 1.672.63 1.672 1.67v.049c0 .334-.051.656-.145.959l.006-.023-.919 3.229a4.63 4.63 0 0 0-.195 1.346v.023-.001c0 1.532.919 2.655 2.842 2.655 1.645 0 2.955-1.039 3.679-3.529l-1.226-.466c-.613 1.669-1.143 1.971-1.56 1.971s-.642-.273-.642-.82a3.59 3.59 0 0 1 .145-.874l-.006.025.893-3.146a6.82 6.82 0 0 0 .307-1.995c0-2.354-1.45-3.582-3.206-3.582-1.645 0-3.316 1.456-4.152 2.989l.612-2.752h-4.764l-.669 2.425h2.231l-1.373 5.393c-1.079 2.354-3.06 2.392-3.309 2.337-.408-.09-.668-.242-.668-.766.012-.424.078-.845.195-1.252l2.09-8.143H7.022l-.668 2.425h2.201l-1.423 5.702z"/></symbol><symbol id="icon-like" viewBox="0 0 32 32"><path d="M22.666 6C19.866 6 17.4 7.4 16 9.6 14.6 7.4 12.134 6 9.334 6c-4.4 0-8 3.6-8 8C1.334 21.934 16 30 16 30s14.666-8 14.666-16c0-4.4-3.6-8-8-8z"/></symbol><symbol id="icon-folder" viewBox="0 0 32 32"><path fill="#fff" style="fill:var(--color1,#fff)" opacity=".38" d="M18.667 17.333h-1.333V16a1.333 1.333 0 0 0-2.666 0v1.333h-1.333a1.333 1.333 0 0 0 0 2.666h1.333v1.333a1.333 1.333 0 0 0 2.666 0v-1.333h1.333a1.333 1.333 0 0 0 0-2.666z"/><path fill="#fff" style="fill:var(--color1,#fff)" opacity=".38" d="M26 9.399h-9.333l-3.506-4.24c-.245-.3-.614-.49-1.027-.493H5.959a3.292 3.292 0 0 0-3.292 3.237v16.19a3.295 3.295 0 0 0 3.293 3.241h.042H6h20.04c1.8 0 3.264-1.445 3.293-3.238V12.64a3.295 3.295 0 0 0-3.293-3.241h-.042H26zm.667 14.667a.613.613 0 0 1-.669.573H26 6c-.016.002-.035.002-.054.002a.613.613 0 0 1-.612-.575V7.904a.614.614 0 0 1 .669-.572h-.002 5.506l3.467 4.24c.245.3.613.491 1.027.494h10c.016-.002.035-.002.054-.002.326 0 .592.253.613.573v11.429z"/></symbol></defs></svg>