<svg aria-hidden="true" style="width:0;height:0;position:absolute;overflow:hidden" xmlns="http://www.w3.org/2000/svg"><defs><symbol id="icon-logo" viewBox="0 0 32 32"><path fill="#ff6e30" style="fill:var(--color1,#ff6e30)" d="M6.737 0h18.526A6.737 6.737 0 0 1 32 6.737v18.526A6.737 6.737 0 0 1 25.263 32H6.737A6.737 6.737 0 0 1 0 25.263V6.737A6.737 6.737 0 0 1 6.737 0z"/><path fill="#fff" style="fill:var(--color2,#fff)" d="M16.813 10.472c-.28 0-.552.034-.813.099a7.664 7.664 0 0 1 1.692-4.022l-.011.014c3.641.449 6.431 3.523 6.431 7.249v5.328a7.715 7.715 0 0 1-7.163-3.908l-.02-.038h3.224v-1.381a3.34 3.34 0 0 0-3.34-3.34z"/><path fill="#fff" style="fill:var(--color2,#fff)" d="M7.795 14.274a8.12 8.12 0 0 1 8.667-8.102l-.025-.001a8.474 8.474 0 0 0-2.187 6.238l-.001-.024a2.509 2.509 0 0 0-.854 1.888V14.836h1.36a8.544 8.544 0 0 0 9.281 5.507v3.453h-5.6v-3.36h-5.041v3.36h-5.6v-9.521z"/></symbol><symbol id="icon-chevron-down" viewBox="0 0 28 32"><path d="M14 26a1.99 1.99 0 0 1-1.414-.586l-12-12a2 2 0 1 1 2.828-2.828L14 21.175l10.587-10.588a2 2 0 1 1 2.828 2.828l-12 12a1.993 1.993 0 0 1-1.416.584z"/></symbol><symbol id="icon-search" viewBox="0 0 33 32"><path fill="none" style="stroke:var(--color1)" stroke-linejoin="round" stroke-linecap="round" stroke-width="2.667" d="M14.667 25.333c5.891 0 10.667-4.776 10.667-10.667S20.558 3.999 14.667 3.999v0C8.776 3.999 4 8.775 4 14.666s4.776 10.667 10.667 10.667v0zM28 28l-5.8-5.8"/></symbol><symbol id="icon-facebook" viewBox="0 0 32 32"><path fill="#fff" style="fill:var(--color1,#fff)" opacity=".78" d="M17.864 27.996V17.068h3.686l.548-4.279h-4.233v-2.726c0-1.235.344-2.08 2.116-2.08h2.246V4.168a28.833 28.833 0 0 0-3.174-.17h-.122.006c-3.258 0-5.496 1.99-5.496 5.641v3.14H9.779v4.279h3.671v10.936h4.416z"/></symbol><symbol id="icon-instagram" viewBox="0 0 32 32"><path fill="#fff" style="fill:var(--color1,#fff)" opacity=".78" d="M15.998 9.836a6.166 6.166 0 0 0 0 12.332 6.166 6.166 0 0 0 0-12.332zm0 10.168-.084.001a4.005 4.005 0 1 1 .089-8.009h-.004a4.006 4.006 0 0 1 .004 8.008h-.004zm6.41-8.957a1.438 1.438 0 0 0 0-2.876 1.438 1.438 0 0 0 0 2.876z"/><path fill="#fff" style="fill:var(--color1,#fff)" opacity=".78" d="M27.378 8.148a6.175 6.175 0 0 0-3.47-3.495l-.042-.014a8.626 8.626 0 0 0-2.905-.56h-.009c-1.284-.056-1.691-.071-4.947-.071s-3.674 0-4.947.071a8.734 8.734 0 0 0-2.972.58l.06-.02a6.17 6.17 0 0 0-3.497 3.468l-.014.042a8.613 8.613 0 0 0-.558 2.907v.009c-.057 1.282-.075 1.689-.075 4.946s0 3.671.075 4.947a8.805 8.805 0 0 0 .579 2.976l-.02-.06a6.183 6.183 0 0 0 3.47 3.496l.042.015c.86.347 1.857.564 2.899.6h.015c1.284.056 1.691.073 4.947.073s3.674 0 4.947-.073a8.804 8.804 0 0 0 2.975-.579l-.06.02a6.194 6.194 0 0 0 3.497-3.469l.015-.042a8.608 8.608 0 0 0 .558-2.906V21c.057-1.283.075-1.689.075-4.947s0-3.671-.075-4.947a8.768 8.768 0 0 0-.582-3.016l.02.06zm-1.625 12.709a6.689 6.689 0 0 1-.43 2.297l.015-.046a4.006 4.006 0 0 1-2.256 2.272l-.027.009a6.495 6.495 0 0 1-2.222.414h-.004c-1.267.059-1.624.074-4.872.074-3.251 0-3.582 0-4.874-.074a6.601 6.601 0 0 1-2.27-.429l.045.015a4 4 0 0 1-2.282-2.255l-.009-.027a6.653 6.653 0 0 1-.415-2.219v-.006c-.057-1.267-.071-1.624-.071-4.872 0-3.25 0-3.582.071-4.874a6.693 6.693 0 0 1 .415-2.249 4.003 4.003 0 0 1 2.264-2.273l.027-.009a6.561 6.561 0 0 1 2.221-.415h.005c1.268-.057 1.623-.073 4.873-.073s3.582 0 4.872.073c.802.01 1.566.161 2.272.43l-.045-.015a4.007 4.007 0 0 1 2.273 2.256l.009.027c.262.713.403 1.466.414 2.225.058 1.268.072 1.624.072 4.874 0 3.248 0 3.597-.057 4.872h-.015v-.002z"/></symbol><symbol id="icon-twitter" viewBox="0 0 32 32"><path fill="#fff" style="fill:var(--color1,#fff)" opacity=".78" d="M26.178 10.663c.017.233.017.465.017.697 0 7.1-5.404 15.282-15.28 15.282a15.18 15.18 0 0 1-8.248-2.412c.432.05.848.067 1.298.067a10.769 10.769 0 0 0 6.668-2.294 5.385 5.385 0 0 1-5.011-3.686l-.011-.038c.332.05.665.083 1.014.083a5.75 5.75 0 0 0 1.414-.182c-2.473-.513-4.305-2.674-4.305-5.262v-.076a5.413 5.413 0 0 0 2.427.682 5.368 5.368 0 0 1-2.396-4.468v-.005c0-.997.266-1.912.731-2.709 2.662 3.256 6.599 5.385 11.038 5.618l.038.002a5.947 5.947 0 0 1-.133-1.228v-.005a5.368 5.368 0 0 1 5.368-5.368h.002c1.547 0 2.943.648 3.924 1.696a10.612 10.612 0 0 0 3.456-1.324l-.048.027a5.39 5.39 0 0 1-2.338 2.947l-.024.013a10.76 10.76 0 0 0 3.16-.859l-.068.027a11.649 11.649 0 0 1-2.661 2.756l-.031.022z"/></symbol></defs></svg>