<svg aria-hidden="true" style="width:0;height:0;position:absolute;overflow:hidden" xmlns="http://www.w3.org/2000/svg"><defs><symbol id="icon-logo" viewBox="0 0 32 32"><path fill="#ff6e30" style="fill:var(--color1,#ff6e30)" d="M6.737 0h18.526A6.737 6.737 0 0 1 32 6.737v18.526A6.737 6.737 0 0 1 25.263 32H6.737A6.737 6.737 0 0 1 0 25.263V6.737A6.737 6.737 0 0 1 6.737 0z"/><path fill="#fff" style="fill:var(--color2,#fff)" d="M16.813 10.472c-.28 0-.552.034-.813.099a7.664 7.664 0 0 1 1.692-4.022l-.011.014c3.641.449 6.431 3.523 6.431 7.249v5.328a7.715 7.715 0 0 1-7.163-3.908l-.02-.038h3.224v-1.381a3.34 3.34 0 0 0-3.34-3.34z"/><path fill="#fff" style="fill:var(--color2,#fff)" d="M7.795 14.274a8.12 8.12 0 0 1 8.667-8.102l-.025-.001a8.474 8.474 0 0 0-2.187 6.238l-.001-.024a2.509 2.509 0 0 0-.854 1.888V14.836h1.36a8.544 8.544 0 0 0 9.281 5.507v3.453h-5.6v-3.36h-5.041v3.36h-5.6v-9.521z"/></symbol><symbol id="icon-chevron-down" viewBox="0 0 28 32"><path d="M14 26a1.99 1.99 0 0 1-1.414-.586l-12-12a2 2 0 1 1 2.828-2.828L14 21.175l10.587-10.588a2 2 0 1 1 2.828 2.828l-12 12a1.993 1.993 0 0 1-1.416.584z"/></symbol></defs></svg>