<svg aria-hidden="true" style="position: absolute; width: 0; height: 0; overflow: hidden;" version="1.1"
    xmlns="http://www.w3.org/2000/svg" xmlns:xlink="http://www.w3.org/1999/xlink">
    <defs>
        <symbol id="icon-logo" viewBox="0 0 32 32">
            <path fill="#ff6e30" style="fill: var(--color1, #ff6e30)"
                d="M6.737 0h18.526c3.721 0 6.737 3.016 6.737 6.737v18.526c0 3.721-3.016 6.737-6.737 6.737h-18.526c-3.721 0-6.737-3.016-6.737-6.737v-18.526c0-3.721 3.016-6.737 6.737-6.737z">
            </path>
            <path fill="#fff" style="fill: var(--color2, #fff)"
                d="M16.813 10.472c-0.28 0-0.552 0.034-0.813 0.099 0.175-1.539 0.78-2.911 1.692-4.022l-0.011 0.014c3.641 0.449 6.431 3.523 6.431 7.249 0 0 0 0 0 0.001v-0 5.327c-0.132 0.008-0.287 0.013-0.442 0.013-2.882 0-5.396-1.58-6.721-3.921l-0.020-0.038h3.224v-1.381c-0-1.844-1.495-3.339-3.34-3.34h-0z">
            </path>
            <path fill="#fff" style="fill: var(--color2, #fff)"
                d="M7.795 14.274c0-4.484 3.636-8.12 8.12-8.12 0.184 0 0.367 0.006 0.547 0.018l-0.025-0.001c-1.366 1.504-2.203 3.511-2.203 5.713 0 0.176 0.005 0.351 0.016 0.525l-0.001-0.024c-0.525 0.463-0.854 1.137-0.854 1.888 0 0.001 0 0.002 0 0.003v-0 0.56h1.36c1.198 3.267 4.337 5.6 8.020 5.6 0.429 0 0.849-0.031 1.261-0.093v3.453h-5.6v-3.36h-5.041v3.36h-5.6v-9.521z">
            </path>
        </symbol>

        <symbol id="icon-chevron-down" viewBox="0 0 28 32">
            <path
                d="M14 26c-0.512 0-1.024-0.195-1.414-0.586l-12-12c-0.781-0.781-0.781-2.047 0-2.828s2.047-0.781 2.828 0l10.586 10.589 10.587-10.588c0.781-0.781 2.047-0.781 2.828 0s0.781 2.047 0 2.828l-12 12c-0.391 0.391-0.903 0.584-1.416 0.584z">
            </path>
        </symbol>

        <symbol id="icon-search" viewBox="0 0 33 32">
            <path fill="none" style="stroke: var(--color1)" stroke-linejoin="round" stroke-linecap="round"
                stroke-miterlimit="4" stroke-width="2.6667"
                d="M14.667 25.333c5.891 0 10.667-4.776 10.667-10.667s-4.776-10.667-10.667-10.667v0c-5.891 0-10.667 4.776-10.667 10.667s4.776 10.667 10.667 10.667v0zM28 28l-5.8-5.8">
            </path>
        </symbol>

        <symbol id="icon-facebook" viewBox="0 0 32 32">
            <path fill="#fff" style="fill: var(--color1, #fff)" opacity="0.78"
                d="M17.864 27.996v-10.928h3.686l0.548-4.279h-4.233v-2.726c0-1.235 0.344-2.080 2.116-2.080h2.246v-3.815c-0.952-0.108-2.056-0.17-3.174-0.17-0.041 0-0.081 0-0.122 0l0.006-0c-3.258 0-5.496 1.99-5.496 5.641v3.14h-3.662v4.279h3.671v10.936h4.416z">
            </path>
        </symbol>

        <symbol id="icon-instagram" viewBox="0 0 32 32">
            <path fill="#fff" style="fill: var(--color1, #fff)" opacity="0.78"
                d="M15.998 9.836c-3.405 0-6.166 2.761-6.166 6.166s2.761 6.166 6.166 6.166v0c3.405 0 6.166-2.761 6.166-6.166s-2.761-6.166-6.166-6.166v0zM15.998 20.004c-0.025 0.001-0.055 0.001-0.084 0.001-2.212 0-4.005-1.793-4.005-4.005s1.793-4.005 4.005-4.005c0.030 0 0.059 0 0.089 0.001l-0.004-0c2.176 0.047 3.921 1.822 3.921 4.004s-1.745 3.957-3.917 4.004l-0.004 0zM22.408 11.047c0.794 0 1.438-0.644 1.438-1.438s-0.644-1.438-1.438-1.438v0c-0.794 0-1.438 0.644-1.438 1.438s0.644 1.438 1.438 1.438v0z">
            </path>
            <path fill="#fff" style="fill: var(--color1, #fff)" opacity="0.78"
                d="M27.378 8.148c-0.638-1.617-1.894-2.872-3.47-3.495l-0.042-0.014c-0.863-0.334-1.862-0.538-2.905-0.56l-0.009-0c-1.284-0.056-1.691-0.071-4.947-0.071s-3.674 0-4.947 0.071c-1.052 0.021-2.049 0.225-2.972 0.58l0.060-0.020c-1.617 0.636-2.874 1.892-3.497 3.468l-0.014 0.042c-0.334 0.864-0.537 1.863-0.558 2.907l-0 0.009c-0.057 1.282-0.075 1.689-0.075 4.946s0 3.671 0.075 4.947c0.022 1.053 0.225 2.052 0.579 2.976l-0.020-0.060c0.638 1.616 1.894 2.872 3.47 3.496l0.042 0.015c0.86 0.347 1.857 0.564 2.899 0.6l0.015 0c1.284 0.056 1.691 0.073 4.947 0.073s3.674 0 4.947-0.073c1.052-0.022 2.051-0.225 2.975-0.579l-0.060 0.020c1.616-0.639 2.872-1.895 3.497-3.469l0.015-0.042c0.334-0.864 0.537-1.862 0.558-2.906l0-0.009c0.057-1.283 0.075-1.689 0.075-4.947s0-3.671-0.075-4.947c-0.017-1.066-0.222-2.080-0.582-3.016l0.020 0.060zM25.753 20.857c-0.009 0.81-0.16 1.583-0.43 2.297l0.015-0.046c-0.414 1.052-1.231 1.868-2.256 2.272l-0.027 0.009c-0.661 0.253-1.424 0.404-2.222 0.414l-0.004 0c-1.267 0.059-1.624 0.074-4.872 0.074-3.251 0-3.582 0-4.874-0.074-0.802-0.010-1.565-0.161-2.27-0.429l0.045 0.015c-1.056-0.411-1.876-1.228-2.282-2.255l-0.009-0.027c-0.25-0.66-0.401-1.423-0.415-2.219l-0-0.006c-0.057-1.267-0.071-1.624-0.071-4.872 0-3.25 0-3.582 0.071-4.874 0.009-0.768 0.148-1.529 0.415-2.249 0.415-1.054 1.236-1.871 2.264-2.273l0.027-0.009c0.66-0.252 1.424-0.403 2.221-0.415l0.005-0c1.268-0.057 1.623-0.073 4.873-0.073s3.582 0 4.872 0.073c0.802 0.010 1.566 0.161 2.272 0.43l-0.045-0.015c1.052 0.414 1.869 1.231 2.273 2.256l0.009 0.027c0.262 0.713 0.403 1.466 0.414 2.225 0.058 1.268 0.072 1.624 0.072 4.874 0 3.248 0 3.597-0.057 4.872h-0.015v-0.002z">
            </path>
        </symbol>

        <symbol id="icon-twitter" viewBox="0 0 32 32">
            <path fill="#fff" style="fill: var(--color1, #fff)" opacity="0.78"
                d="M26.178 10.663c0.017 0.233 0.017 0.465 0.017 0.697 0 7.1-5.404 15.282-15.28 15.282-3.043 0-5.869-0.882-8.248-2.412 0.432 0.050 0.848 0.067 1.298 0.067 2.417 0.006 4.765-0.803 6.668-2.294-2.34-0.044-4.312-1.575-5.011-3.686l-0.011-0.038c0.332 0.050 0.665 0.083 1.014 0.083 0.482 0 0.965-0.067 1.414-0.182-2.473-0.513-4.305-2.674-4.305-5.262 0-0.003 0-0.006 0-0.009v0-0.067c0.716 0.399 1.547 0.649 2.427 0.682-1.452-0.975-2.396-2.611-2.396-4.468 0-0.002 0-0.003 0-0.005v0c0-0.997 0.266-1.912 0.731-2.709 2.662 3.256 6.599 5.385 11.038 5.618l0.038 0.002c-0.082-0.369-0.13-0.793-0.133-1.228v-0.002c0-0.001 0-0.002 0-0.003 0-2.965 2.403-5.368 5.368-5.368 0.001 0 0.001 0 0.002 0h-0c1.547 0 2.943 0.648 3.924 1.696 1.285-0.254 2.427-0.704 3.456-1.324l-0.048 0.027c-0.416 1.263-1.251 2.292-2.338 2.947l-0.024 0.013c1.146-0.134 2.191-0.427 3.16-0.859l-0.068 0.027c-0.749 1.082-1.64 2.001-2.661 2.756l-0.031 0.022z">
            </path>
        </symbol>

    </defs>
</svg>