<svg aria-hidden="true" style="position: absolute; width: 0; height: 0; overflow: hidden;" version="1.1"
    xmlns="http://www.w3.org/2000/svg" xmlns:xlink="http://www.w3.org/1999/xlink">
    <defs>
        <symbol id="icon-logo" viewBox="0 0 32 32">
            <path fill="#ff6e30" style="fill: var(--color1, #ff6e30)"
                d="M6.737 0h18.526c3.721 0 6.737 3.016 6.737 6.737v18.526c0 3.721-3.016 6.737-6.737 6.737h-18.526c-3.721 0-6.737-3.016-6.737-6.737v-18.526c0-3.721 3.016-6.737 6.737-6.737z">
            </path>
            <path fill="#fff" style="fill: var(--color2, #fff)"
                d="M16.813 10.472c-0.28 0-0.552 0.034-0.813 0.099 0.175-1.539 0.78-2.911 1.692-4.022l-0.011 0.014c3.641 0.449 6.431 3.523 6.431 7.249 0 0 0 0 0 0.001v-0 5.327c-0.132 0.008-0.287 0.013-0.442 0.013-2.882 0-5.396-1.58-6.721-3.921l-0.020-0.038h3.224v-1.381c-0-1.844-1.495-3.339-3.34-3.34h-0z">
            </path>
            <path fill="#fff" style="fill: var(--color2, #fff)"
                d="M7.795 14.274c0-4.484 3.636-8.12 8.12-8.12 0.184 0 0.367 0.006 0.547 0.018l-0.025-0.001c-1.366 1.504-2.203 3.511-2.203 5.713 0 0.176 0.005 0.351 0.016 0.525l-0.001-0.024c-0.525 0.463-0.854 1.137-0.854 1.888 0 0.001 0 0.002 0 0.003v-0 0.56h1.36c1.198 3.267 4.337 5.6 8.020 5.6 0.429 0 0.849-0.031 1.261-0.093v3.453h-5.6v-3.36h-5.041v3.36h-5.6v-9.521z">
            </path>
        </symbol>

        <symbol id="icon-chevron-down" viewBox="0 0 28 32">
            <path
                d="M14 26c-0.512 0-1.024-0.195-1.414-0.586l-12-12c-0.781-0.781-0.781-2.047 0-2.828s2.047-0.781 2.828 0l10.586 10.589 10.587-10.588c0.781-0.781 2.047-0.781 2.828 0s0.781 2.047 0 2.828l-12 12c-0.391 0.391-0.903 0.584-1.416 0.584z">
            </path>
        </symbol>

        <symbol id="icon-search" viewBox="0 0 33 32">
            <path fill="none" style="stroke: var(--color1)" stroke-linejoin="round" stroke-linecap="round"
                stroke-miterlimit="4" stroke-width="2.6667"
                d="M14.667 25.333c5.891 0 10.667-4.776 10.667-10.667s-4.776-10.667-10.667-10.667v0c-5.891 0-10.667 4.776-10.667 10.667s4.776 10.667 10.667 10.667v0zM28 28l-5.8-5.8">
            </path>
        </symbol>

        <symbol id="icon-facebook" viewBox="0 0 32 32">
            <path fill="#fff" style="fill: var(--color1, #fff)" opacity="0.78"
                d="M17.864 27.996v-10.928h3.686l0.548-4.279h-4.233v-2.726c0-1.235 0.344-2.080 2.116-2.080h2.246v-3.815c-0.952-0.108-2.056-0.17-3.174-0.17-0.041 0-0.081 0-0.122 0l0.006-0c-3.258 0-5.496 1.99-5.496 5.641v3.14h-3.662v4.279h3.671v10.936h4.416z">
            </path>
        </symbol>

        <symbol id="icon-instagram" viewBox="0 0 32 32">
            <path fill="#fff" style="fill: var(--color1, #fff)" opacity="0.78"
                d="M15.998 9.836c-3.405 0-6.166 2.761-6.166 6.166s2.761 6.166 6.166 6.166v0c3.405 0 6.166-2.761 6.166-6.166s-2.761-6.166-6.166-6.166v0zM15.998 20.004c-0.025 0.001-0.055 0.001-0.084 0.001-2.212 0-4.005-1.793-4.005-4.005s1.793-4.005 4.005-4.005c0.030 0 0.059 0 0.089 0.001l-0.004-0c2.176 0.047 3.921 1.822 3.921 4.004s-1.745 3.957-3.917 4.004l-0.004 0zM22.408 11.047c0.794 0 1.438-0.644 1.438-1.438s-0.644-1.438-1.438-1.438v0c-0.794 0-1.438 0.644-1.438 1.438s0.644 1.438 1.438 1.438v0z">
            </path>
            <path fill="#fff" style="fill: var(--color1, #fff)" opacity="0.78"
                d="M27.378 8.148c-0.638-1.617-1.894-2.872-3.47-3.495l-0.042-0.014c-0.863-0.334-1.862-0.538-2.905-0.56l-0.009-0c-1.284-0.056-1.691-0.071-4.947-0.071s-3.674 0-4.947 0.071c-1.052 0.021-2.049 0.225-2.972 0.58l0.060-0.020c-1.617 0.636-2.874 1.892-3.497 3.468l-0.014 0.042c-0.334 0.864-0.537 1.863-0.558 2.907l-0 0.009c-0.057 1.282-0.075 1.689-0.075 4.946s0 3.671 0.075 4.947c0.022 1.053 0.225 2.052 0.579 2.976l-0.020-0.060c0.638 1.616 1.894 2.872 3.47 3.496l0.042 0.015c0.86 0.347 1.857 0.564 2.899 0.6l0.015 0c1.284 0.056 1.691 0.073 4.947 0.073s3.674 0 4.947-0.073c1.052-0.022 2.051-0.225 2.975-0.579l-0.060 0.020c1.616-0.639 2.872-1.895 3.497-3.469l0.015-0.042c0.334-0.864 0.537-1.862 0.558-2.906l0-0.009c0.057-1.283 0.075-1.689 0.075-4.947s0-3.671-0.075-4.947c-0.017-1.066-0.222-2.080-0.582-3.016l0.020 0.060zM25.753 20.857c-0.009 0.81-0.16 1.583-0.43 2.297l0.015-0.046c-0.414 1.052-1.231 1.868-2.256 2.272l-0.027 0.009c-0.661 0.253-1.424 0.404-2.222 0.414l-0.004 0c-1.267 0.059-1.624 0.074-4.872 0.074-3.251 0-3.582 0-4.874-0.074-0.802-0.010-1.565-0.161-2.27-0.429l0.045 0.015c-1.056-0.411-1.876-1.228-2.282-2.255l-0.009-0.027c-0.25-0.66-0.401-1.423-0.415-2.219l-0-0.006c-0.057-1.267-0.071-1.624-0.071-4.872 0-3.25 0-3.582 0.071-4.874 0.009-0.768 0.148-1.529 0.415-2.249 0.415-1.054 1.236-1.871 2.264-2.273l0.027-0.009c0.66-0.252 1.424-0.403 2.221-0.415l0.005-0c1.268-0.057 1.623-0.073 4.873-0.073s3.582 0 4.872 0.073c0.802 0.010 1.566 0.161 2.272 0.43l-0.045-0.015c1.052 0.414 1.869 1.231 2.273 2.256l0.009 0.027c0.262 0.713 0.403 1.466 0.414 2.225 0.058 1.268 0.072 1.624 0.072 4.874 0 3.248 0 3.597-0.057 4.872h-0.015v-0.002z">
            </path>
        </symbol>

        <symbol id="icon-twitter" viewBox="0 0 32 32">
            <path fill="#fff" style="fill: var(--color1, #fff)" opacity="0.78"
                d="M26.178 10.663c0.017 0.233 0.017 0.465 0.017 0.697 0 7.1-5.404 15.282-15.28 15.282-3.043 0-5.869-0.882-8.248-2.412 0.432 0.050 0.848 0.067 1.298 0.067 2.417 0.006 4.765-0.803 6.668-2.294-2.34-0.044-4.312-1.575-5.011-3.686l-0.011-0.038c0.332 0.050 0.665 0.083 1.014 0.083 0.482 0 0.965-0.067 1.414-0.182-2.473-0.513-4.305-2.674-4.305-5.262 0-0.003 0-0.006 0-0.009v0-0.067c0.716 0.399 1.547 0.649 2.427 0.682-1.452-0.975-2.396-2.611-2.396-4.468 0-0.002 0-0.003 0-0.005v0c0-0.997 0.266-1.912 0.731-2.709 2.662 3.256 6.599 5.385 11.038 5.618l0.038 0.002c-0.082-0.369-0.13-0.793-0.133-1.228v-0.002c0-0.001 0-0.002 0-0.003 0-2.965 2.403-5.368 5.368-5.368 0.001 0 0.001 0 0.002 0h-0c1.547 0 2.943 0.648 3.924 1.696 1.285-0.254 2.427-0.704 3.456-1.324l-0.048 0.027c-0.416 1.263-1.251 2.292-2.338 2.947l-0.024 0.013c1.146-0.134 2.191-0.427 3.16-0.859l-0.068 0.027c-0.749 1.082-1.64 2.001-2.661 2.756l-0.031 0.022z">
            </path>
        </symbol>

        <symbol id="icon-figma" viewBox="0 0 32 32">
            <path fill="#19bcfe" style="fill: var(--color1, #19bcfe)" opacity="0.78"
                d="M21.334 21.334c2.945 0 5.333-2.388 5.333-5.334s-2.387-5.334-5.333-5.334-5.334 2.389-5.334 5.334 2.388 5.334 5.334 5.334z">
            </path>
            <path fill="#09cf83" style="fill: var(--color2, #09cf83)" opacity="0.78"
                d="M10.666 32c2.946 0 5.334-2.388 5.334-5.334v0-5.333h-5.334c-0.015-0-0.033-0-0.052-0-2.946 0-5.333 2.388-5.333 5.334s2.388 5.334 5.333 5.334c0.018 0 0.036-0 0.054-0l-0.003 0z">
            </path>
            <path fill="#a259ff" style="fill: var(--color3, #a259ff)" opacity="0.78"
                d="M10.666 21.334h5.334v-10.667h-5.334c-2.946 0-5.333 2.388-5.333 5.333s2.388 5.334 5.333 5.334v0z">
            </path>
            <path fill="#f24e1e" style="fill: var(--color4, #f24e1e)" opacity="0.78"
                d="M10.666 10.666h5.334v-10.666h-5.334c-0.015-0-0.033-0-0.052-0-2.946 0-5.333 2.388-5.333 5.333s2.388 5.334 5.333 5.334c0.018 0 0.036-0 0.054-0l-0.003 0z">
            </path>
            <path fill="#ff7262" style="fill: var(--color5, #ff7262)" opacity="0.78"
                d="M21.334 10.666h-5.334v-10.666h5.334c2.923 0.029 5.282 2.406 5.282 5.333s-2.359 5.304-5.279 5.333l-0.003 0z">
            </path>
        </symbol>

        <symbol id="icon-sketch" viewBox="0 0 36 32">
            <path fill="#fdb300" style="fill: var(--color7, #fdb300)"
                d="M17.965 0l-10.125 1.051-7.839 10.333 17.965 20.541 17.965-20.542-7.839-10.332-10.125-1.052z"></path>
            <path fill="#eb6c00" style="fill: var(--color8, #eb6c00)"
                d="M0 11.384l17.965 20.542-10.688-20.542h-7.277zM28.653 11.384l-10.688 20.542 17.965-20.542h-7.277z">
            </path>
            <path fill="#fdad00" style="fill: var(--color9, #fdad00)"
                d="M7.277 11.384l10.688 20.542 10.689-20.542h-21.377z"></path>
            <path fill="#fdd231" style="fill: var(--color10, #fdd231)"
                d="M7.839 1.051l-0.564 10.333 10.689-11.384-10.125 1.051zM28.653 11.384l-0.563-10.333-10.125-1.051 10.688 11.384z">
            </path>
            <path fill="#fdad00" style="fill: var(--color9, #fdad00)"
                d="M28.653 11.384h7.277l-7.839-10.333 0.563 10.333zM0 11.384h7.276l0.563-10.333-7.839 10.333z"></path>
            <path fill="#feeeb7" style="fill: var(--color11, #feeeb7)"
                d="M17.965 0l-10.688 11.384h21.377l-10.689-11.384z"></path>
        </symbol>

        <symbol id="icon-vscode" viewBox="0 0 33 32">
            <path fill="#0065a9" style="fill: var(--color12, #0065a9)" opacity="0.78"
                d="M31.744 3.378l-6.776-3.18c-0.26-0.125-0.566-0.198-0.888-0.198-0.121 0-0.24 0.010-0.356 0.030l0.012-0.002c-0.434 0.073-0.812 0.271-1.106 0.557l0-0-22.183 19.708c-0.275 0.242-0.447 0.594-0.447 0.987s0.173 0.746 0.447 0.987l0.002 0.001 1.812 1.605c0.229 0.203 0.529 0.332 0.858 0.346l0.003 0c0.32 0.014 0.634-0.081 0.889-0.27l26.714-19.747c0.896-0.662 2.184-0.040 2.184 1.056v-0.077c0-0.377-0.11-0.747-0.315-1.066-0.209-0.32-0.497-0.572-0.837-0.734l-0.012-0.005z">
            </path>
            <path fill="#007acc" style="fill: var(--color13, #007acc)" opacity="0.78"
                d="M31.744 28.503l-6.776 3.179c-0.26 0.125-0.566 0.198-0.889 0.198-0.121 0-0.24-0.010-0.356-0.030l0.012 0.002c-0.434-0.073-0.812-0.271-1.106-0.557l0 0-22.183-19.708c-0.275-0.242-0.447-0.594-0.447-0.987s0.173-0.746 0.447-0.987l0.002-0.001 1.812-1.605c0.229-0.203 0.529-0.332 0.858-0.346l0.003-0c0.32-0.014 0.634 0.081 0.889 0.27l26.713 19.747c0.896 0.662 2.184 0.040 2.184-1.056v0.077c-0 0.396-0.118 0.765-0.32 1.073l0.005-0.008c-0.209 0.32-0.497 0.572-0.837 0.734l-0.012 0.005z">
            </path>
            <path fill="#1f9cf0" style="fill: var(--color14, #1f9cf0)" opacity="0.78"
                d="M24.946 31.685c-0.26 0.125-0.566 0.198-0.889 0.198-0.121 0-0.24-0.010-0.356-0.030l0.012 0.002c-0.434-0.073-0.812-0.272-1.106-0.557l0 0c0.758 0.739 2.055 0.215 2.055-0.83v-29.050c0-1.045-1.297-1.569-2.055-0.829 0.293-0.285 0.671-0.484 1.093-0.555l0.012-0.002c0.103-0.018 0.222-0.028 0.344-0.028 0.323 0 0.628 0.073 0.901 0.203l-0.013-0.005 6.775 3.175c0.352 0.167 0.64 0.419 0.845 0.731l0.005 0.008c0.197 0.301 0.315 0.67 0.315 1.066v21.526c0 0.77-0.452 1.471-1.164 1.805l-6.775 3.175z">
            </path>
            <path fill="#000" style="fill: var(--color15, #000)" opacity="0.195"
                d="M23.321 31.744c0.221 0.086 0.476 0.136 0.744 0.136 0.322 0 0.628-0.073 0.901-0.203l-0.013 0.005 6.771-3.175c0.352-0.167 0.64-0.419 0.844-0.731l0.005-0.008c0.206-0.32 0.315-0.689 0.315-1.066v-21.526c0-0.377-0.109-0.747-0.315-1.066-0.209-0.32-0.497-0.572-0.836-0.734l-0.012-0.005-6.771-3.175c-0.26-0.125-0.566-0.198-0.888-0.198-0.122 0-0.241 0.010-0.356 0.030l0.012-0.002c-0.434 0.073-0.812 0.272-1.105 0.557l0-0-12.963 11.523-5.646-4.176c-0.228-0.17-0.516-0.272-0.827-0.272-0.022 0-0.044 0-0.065 0.002l0.003-0c-0.332 0.014-0.631 0.143-0.861 0.347l0.001-0.001-1.811 1.605c-0.275 0.242-0.448 0.595-0.448 0.988s0.172 0.745 0.445 0.986l0.001 0.001 4.896 4.353-4.896 4.352c-0.275 0.242-0.447 0.594-0.447 0.987s0.173 0.746 0.447 0.987l0.001 0.001 1.811 1.605c0.229 0.203 0.529 0.331 0.858 0.345l0.003 0c0.019 0.001 0.040 0.001 0.062 0.001 0.311 0 0.598-0.102 0.83-0.274l-0.004 0.003 5.646-4.176 12.962 11.523c0.2 0.196 0.44 0.348 0.704 0.448zM24.67 8.665l-9.835 7.275 9.835 7.274v-14.549z">
            </path>
        </symbol>

        <symbol id="icon-notion" viewBox="0 0 32 32">
            <path fill="#fff" style="fill: var(--color6, #fff)" opacity="0.78"
                d="M5.716 29.218l-3.439-4.285c-0.793-0.976-1.274-2.233-1.276-3.602v-15.516c0-1.954 1.563-3.576 3.581-3.714l15.951-1.089c0.108-0.008 0.234-0.013 0.361-0.013 1.083 0 2.088 0.331 2.92 0.897l-0.018-0.012 5.604 3.789c1.003 0.678 1.601 1.787 1.601 2.97v17.639c0 1.913-1.538 3.497-3.512 3.618l-17.704 1.090c-1.576 0.096-3.099-0.567-4.067-1.773z">
            </path>
            <path fill="#000" style="fill: var(--color15, #000)" opacity="0.78"
                d="M11.248 13.579v-0.203c0-0.515 0.412-0.942 0.944-0.978l3.872-0.258 5.354 7.884v-6.919l-1.378-0.184v-0.097c0-0.521 0.422-0.951 0.96-0.979l3.523-0.18v0.506c-0.003 0.244-0.183 0.445-0.417 0.482l-0.003 0-0.848 0.143v11.205l-1.064 0.366c-0.889 0.305-1.878-0.021-2.387-0.789l-5.197-7.843v7.486l1.6 0.306-0.023 0.148c-0.070 0.465-0.471 0.817-0.957 0.838l-3.979 0.177c-0.053-0.5 0.322-0.947 0.839-1.001l0.524-0.055v-9.982l-1.363-0.076z">
            </path>
            <path fill="#000" style="fill: var(--color15, #000)" opacity="0.78"
                d="M20.675 2.967l-15.951 1.089c-0.955 0.065-1.696 0.833-1.696 1.759v15.515c0 0.87 0.3 1.715 0.851 2.402l3.439 4.285c0.556 0.692 1.431 1.074 2.337 1.018l17.704-1.090c0.907-0.055 1.614-0.783 1.614-1.662v-17.639c-0.003-0.567-0.292-1.066-0.73-1.361l-0.006-0.004-5.604-3.789c-0.489-0.333-1.092-0.531-1.741-0.531-0.076 0-0.152 0.003-0.227 0.008l0.010-0.001zM5.515 6.057c-0.223-0.165-0.117-0.506 0.162-0.527l15.105-1.083c0.045-0.004 0.098-0.006 0.152-0.006 0.449 0 0.864 0.142 1.204 0.384l-0.006-0.004 3.031 2.147c0.115 0.082 0.061 0.258-0.081 0.265l-15.996 0.87c-0.035 0.002-0.076 0.003-0.117 0.003-0.463 0-0.891-0.152-1.236-0.408l0.006 0.004-2.223-1.646zM8.334 10.831c0-0.52 0.42-0.949 0.957-0.978l16.913-0.921c0.523-0.028 0.964 0.374 0.964 0.88v15.273c0 0.519-0.419 0.948-0.954 0.979l-16.805 0.956c-0.582 0.033-1.073-0.415-1.073-0.978v-15.211z">
            </path>
        </symbol>

        <symbol id="icon-slack" viewBox="0 0 33 32">
            <path fill="#e01e5a" style="fill: var(--color1, #e01e5a)" opacity="0.78"
                d="M6.836 20.11c0 0.439-0.088 0.873-0.258 1.279-0.181 0.423-0.431 0.783-0.738 1.084l-0.001 0.001c-0.309 0.303-0.676 0.548-1.082 0.716l-0.023 0.008c-0.384 0.16-0.831 0.253-1.299 0.253-0.002 0-0.003 0-0.005 0h0c-0.447 0-0.89-0.087-1.303-0.255-0.429-0.177-0.796-0.422-1.106-0.725l0.001 0.001c-0.307-0.302-0.556-0.662-0.729-1.063l-0.008-0.022c-0.163-0.377-0.259-0.816-0.259-1.278 0-0 0-0.001 0-0.001v0c0-0.439 0.087-0.874 0.259-1.28 0.181-0.422 0.43-0.783 0.737-1.084l0.001-0.001c0.309-0.303 0.676-0.548 1.082-0.716l0.023-0.008c0.384-0.16 0.831-0.253 1.299-0.253 0.001 0 0.003 0 0.004 0h3.405v3.343h-0.001zM8.538 20.11c0-0.439 0.088-0.875 0.258-1.28 0.181-0.423 0.43-0.783 0.737-1.084l0.001-0c0.309-0.303 0.676-0.548 1.082-0.716l0.023-0.008c0.384-0.16 0.831-0.253 1.299-0.253 0.001 0 0.003 0 0.004 0h-0c0.447-0 0.89 0.085 1.303 0.253 0.429 0.177 0.796 0.422 1.106 0.726l-0.001-0c0.308 0.302 0.557 0.662 0.73 1.063l0.008 0.022c0.171 0.405 0.258 0.84 0.258 1.28v8.357c0 0.439-0.088 0.874-0.258 1.28-0.181 0.423-0.43 0.783-0.737 1.084l-0.001 0.001c-0.309 0.303-0.676 0.548-1.082 0.716l-0.023 0.008c-0.384 0.16-0.831 0.253-1.299 0.253-0.001 0-0.003 0-0.004 0h0c-0.447 0-0.89-0.086-1.303-0.254-0.429-0.177-0.796-0.422-1.106-0.725l0.001 0.001c-0.308-0.302-0.557-0.662-0.729-1.063l-0.008-0.022c-0.163-0.377-0.258-0.816-0.258-1.278 0-0.001 0-0.001 0-0.002v0-8.357z">
            </path>
            <path fill="#36c5f0" style="fill: var(--color2, #36c5f0)" opacity="0.78"
                d="M11.943 6.687c-0.447 0-0.89-0.086-1.303-0.254-0.429-0.177-0.796-0.422-1.106-0.726l0.001 0c-0.308-0.302-0.557-0.662-0.73-1.063l-0.008-0.022c-0.163-0.377-0.258-0.816-0.258-1.277 0-0.001 0-0.002 0-0.003v0c0-0.44 0.088-0.874 0.258-1.28 0.181-0.423 0.43-0.783 0.737-1.085l0.001-0c0.309-0.303 0.676-0.548 1.082-0.716l0.023-0.008c0.384-0.16 0.831-0.254 1.299-0.254 0.001 0 0.002 0 0.003 0h-0c0.447 0 0.89 0.086 1.303 0.254 0.429 0.177 0.796 0.422 1.106 0.726l-0.001-0c0.308 0.302 0.557 0.662 0.73 1.063l0.008 0.022c0.171 0.405 0.258 0.84 0.258 1.279v3.345l-3.405-0.001zM11.943 8.383c0.447 0 0.89 0.086 1.303 0.254 0.429 0.177 0.796 0.422 1.106 0.726l-0.001-0.001c0.308 0.302 0.557 0.662 0.73 1.063l0.008 0.022c0.171 0.405 0.258 0.84 0.258 1.279s-0.088 0.874-0.258 1.28c-0.181 0.423-0.43 0.783-0.737 1.085l-0.001 0.001c-0.309 0.303-0.676 0.547-1.082 0.716l-0.023 0.008c-0.385 0.161-0.832 0.254-1.3 0.254-0.001 0-0.002 0-0.003 0h-8.538c-0.447 0-0.89-0.086-1.303-0.254-0.429-0.177-0.796-0.422-1.106-0.725l0.001 0.001c-0.307-0.302-0.556-0.662-0.729-1.063l-0.008-0.022c-0.164-0.378-0.259-0.818-0.259-1.28s0.095-0.901 0.267-1.3l-0.008 0.021c0.181-0.423 0.43-0.783 0.737-1.084l0.001-0.001c0.309-0.303 0.676-0.548 1.082-0.716l0.023-0.008c0.385-0.161 0.832-0.254 1.301-0.254 0.001 0 0.002 0 0.003 0l8.538-0.001z">
            </path>
            <path fill="#2eb67d" style="fill: var(--color3, #2eb67d)" opacity="0.78"
                d="M25.587 11.726c0-0.439 0.087-0.874 0.259-1.28 0.181-0.423 0.43-0.783 0.737-1.084l0.001-0.001c0.309-0.303 0.676-0.548 1.083-0.716l0.023-0.008c0.384-0.16 0.831-0.254 1.299-0.254 0.002 0 0.003 0 0.005 0h-0c0.448 0 0.89 0.086 1.303 0.254 0.429 0.177 0.796 0.422 1.106 0.726l-0.001-0.001c0.308 0.302 0.557 0.662 0.729 1.063l0.008 0.022c0.171 0.405 0.259 0.84 0.258 1.279s-0.087 0.874-0.258 1.28c-0.181 0.423-0.43 0.783-0.737 1.085l-0.001 0.001c-0.309 0.303-0.676 0.547-1.082 0.716l-0.023 0.008c-0.385 0.161-0.832 0.254-1.3 0.254-0.001 0-0.002 0-0.003 0h-3.405v-3.343zM23.884 11.726c0 0.439-0.087 0.874-0.258 1.28-0.181 0.423-0.43 0.783-0.737 1.085l-0.001 0.001c-0.309 0.303-0.676 0.547-1.082 0.716l-0.023 0.008c-0.385 0.161-0.832 0.254-1.3 0.254-0.001 0-0.002 0-0.003 0h0c-0.001 0-0.003 0-0.005 0-0.468 0-0.915-0.093-1.322-0.262l0.023 0.008c-0.429-0.177-0.796-0.422-1.106-0.725l0.001 0.001c-0.308-0.302-0.557-0.662-0.73-1.063l-0.008-0.022c-0.163-0.377-0.259-0.816-0.259-1.278 0-0.001 0-0.002 0-0.002v0-8.383c0-0.439 0.087-0.874 0.259-1.28 0.181-0.423 0.431-0.783 0.738-1.084l0.001-0.001c0.309-0.303 0.676-0.547 1.082-0.716l0.023-0.008c0.384-0.16 0.831-0.254 1.299-0.254 0.002 0 0.003 0 0.005 0h-0c0.447 0 0.89 0.086 1.303 0.254 0.429 0.177 0.796 0.422 1.106 0.726l-0.001-0c0.308 0.302 0.557 0.662 0.73 1.063l0.008 0.022c0.171 0.405 0.259 0.84 0.258 1.279v8.383z">
            </path>
            <path fill="#ecb22e" style="fill: var(--color4, #ecb22e)" opacity="0.78"
                d="M20.48 25.123c0.448 0 0.89 0.086 1.303 0.254 0.429 0.177 0.796 0.422 1.106 0.725l-0.001-0.001c0.308 0.302 0.557 0.662 0.729 1.063l0.008 0.022c0.171 0.405 0.259 0.84 0.259 1.279 0 0.001 0 0.002 0 0.003 0 0.461-0.095 0.9-0.266 1.298l0.008-0.021c-0.181 0.423-0.43 0.783-0.737 1.084l-0 0c-0.309 0.303-0.676 0.548-1.082 0.717l-0.023 0.008c-0.385 0.161-0.832 0.254-1.301 0.254-0.001 0-0.002 0-0.003 0h0c-0.448 0-0.89-0.086-1.304-0.254-0.429-0.177-0.796-0.422-1.106-0.726l0.001 0c-0.308-0.302-0.557-0.662-0.729-1.063l-0.008-0.022c-0.163-0.377-0.258-0.816-0.258-1.277 0-0.001 0-0.002 0-0.003v0-3.343h3.404zM20.48 23.453c-0.447 0-0.89-0.086-1.303-0.254-0.429-0.177-0.796-0.422-1.106-0.725l0.001 0.001c-0.308-0.302-0.557-0.662-0.729-1.063l-0.008-0.022c-0.163-0.377-0.259-0.816-0.259-1.278 0-0.001 0-0.001 0-0.002v0c0-0.439 0.087-0.874 0.259-1.28 0.181-0.422 0.43-0.783 0.737-1.084l0.001-0.001c0.309-0.303 0.676-0.548 1.082-0.716l0.023-0.008c0.384-0.16 0.831-0.253 1.299-0.253 0.001 0 0.003 0 0.004 0h8.538c0.447-0 0.89 0.085 1.303 0.253 0.429 0.177 0.796 0.422 1.106 0.726l-0.001-0c0.308 0.302 0.557 0.662 0.73 1.063l0.008 0.022c0.171 0.405 0.258 0.84 0.258 1.28 0.001 0.439-0.087 0.873-0.258 1.279-0.181 0.423-0.43 0.783-0.737 1.084l-0.001 0c-0.309 0.303-0.676 0.548-1.082 0.717l-0.023 0.008c-0.384 0.16-0.831 0.253-1.299 0.253-0.001 0-0.003 0-0.004 0h-8.538z">
            </path>
        </symbol>

        <symbol id="icon-invision" viewBox="0 0 33 32">
            <path fill="#f06" style="fill: var(--color5, #f06)" opacity="0.78"
                d="M0 2c0-1.105 0.895-2 2-2v0h28.5c1.105 0 2 0.895 2 2v0 27.912c0 1.105-0.895 2-2 2v0h-28.5c-1.105 0-2-0.895-2-2v0-27.912z">
            </path>
            <path fill="#fff" style="fill: var(--color6, #fff)" opacity="0.78"
                d="M11.059 10.269c1.028-0.015 1.851-0.842 1.841-1.851s-0.848-1.822-1.877-1.816c-1.028 0.005-1.859 0.825-1.859 1.834 0.001 0.243 0.050 0.483 0.146 0.707s0.236 0.427 0.412 0.598c0.177 0.171 0.385 0.305 0.615 0.396 0.229 0.091 0.475 0.136 0.722 0.133zM7.129 20.089c-0.103 0.412-0.163 0.887-0.167 1.375l-0 0.003c0 1.615 0.891 2.686 2.787 2.686 1.572 0 2.847-0.916 3.764-2.397l-0.56 2.209h3.12l1.785-7.020c0.445-1.78 1.308-2.703 2.619-2.703 1.031 0 1.672 0.63 1.672 1.67 0 0.014 0 0.031 0 0.049 0 0.334-0.051 0.656-0.145 0.959l0.006-0.023-0.919 3.229c-0.124 0.403-0.195 0.866-0.195 1.346 0 0.008 0 0.015 0 0.023v-0.001c0 1.532 0.919 2.655 2.842 2.655 1.645 0 2.955-1.039 3.679-3.529l-1.226-0.466c-0.613 1.669-1.143 1.971-1.56 1.971s-0.642-0.273-0.642-0.82c0.013-0.307 0.063-0.598 0.145-0.874l-0.006 0.025 0.893-3.146c0.201-0.646 0.304-1.319 0.307-1.995 0-2.354-1.45-3.582-3.206-3.582-1.645 0-3.316 1.456-4.152 2.989l0.612-2.752h-4.764l-0.669 2.425h2.231l-1.373 5.393c-1.079 2.354-3.060 2.392-3.309 2.337-0.408-0.090-0.668-0.242-0.668-0.766 0.012-0.424 0.078-0.845 0.195-1.252l2.090-8.143h-5.293l-0.668 2.425h2.201l-1.423 5.702z">
            </path>
        </symbol>

        <symbol id="icon-like" viewBox="0 0 32 32">
            <path
                d="M22.666 6c-2.8 0-5.266 1.4-6.666 3.6-1.4-2.2-3.866-3.6-6.666-3.6-4.4 0-8 3.6-8 8 0 7.934 14.666 16 14.666 16s14.666-8 14.666-16c0-4.4-3.6-8-8-8z">
            </path>
        </symbol>

        <symbol id="icon-folder" viewBox="0 0 32 32">
            <path fill="#fff" style="fill: var(--color1, #fff)" opacity="0.38"
                d="M18.667 17.333h-1.333v-1.333c0-0.736-0.597-1.333-1.333-1.333s-1.333 0.597-1.333 1.333v0 1.333h-1.333c-0.736 0-1.333 0.597-1.333 1.333s0.597 1.333 1.333 1.333v0h1.333v1.333c0 0.736 0.597 1.333 1.333 1.333s1.333-0.597 1.333-1.333v0-1.333h1.333c0.736 0 1.333-0.597 1.333-1.333s-0.597-1.333-1.333-1.333v0z">
            </path>
            <path fill="#fff" style="fill: var(--color1, #fff)" opacity="0.38"
                d="M26 9.399h-9.333l-3.506-4.24c-0.245-0.3-0.614-0.49-1.027-0.493h-6.134c-0.012-0-0.027-0-0.041-0-1.8 0-3.263 1.444-3.292 3.237l-0 0.003v16.187c0.030 1.796 1.493 3.241 3.293 3.241 0.014 0 0.028-0 0.042-0l-0.002 0h20c0.012 0 0.026 0 0.040 0 1.8 0 3.264-1.445 3.293-3.238l0-0.003v-11.453c-0.030-1.796-1.493-3.241-3.293-3.241-0.014 0-0.028 0-0.042 0l0.002-0zM26.667 24.066c-0.020 0.322-0.286 0.576-0.611 0.576-0.020 0-0.039-0.001-0.058-0.003l0.002 0h-20c-0.016 0.002-0.035 0.002-0.054 0.002-0.326 0-0.592-0.254-0.612-0.575l-0-0.002v-16.16c0.021-0.322 0.287-0.575 0.612-0.575 0.019 0 0.038 0.001 0.057 0.003l-0.002-0h5.506l3.467 4.24c0.245 0.3 0.613 0.491 1.027 0.494h10c0.016-0.002 0.035-0.002 0.054-0.002 0.326 0 0.592 0.253 0.613 0.573l0 0.002v11.427z">
            </path>
        </symbol>

    </defs>
</svg>