<svg aria-hidden="true" style="position: absolute; width: 0; height: 0; overflow: hidden;" version="1.1"
    xmlns="http://www.w3.org/2000/svg" xmlns:xlink="http://www.w3.org/1999/xlink">
    <defs>
        <symbol id="icon-logo" viewBox="0 0 32 32">
            <path fill="#ff6e30" style="fill: var(--color1, #ff6e30)"
                d="M6.737 0h18.526c3.721 0 6.737 3.016 6.737 6.737v18.526c0 3.721-3.016 6.737-6.737 6.737h-18.526c-3.721 0-6.737-3.016-6.737-6.737v-18.526c0-3.721 3.016-6.737 6.737-6.737z">
            </path>
            <path fill="#fff" style="fill: var(--color2, #fff)"
                d="M16.813 10.472c-0.28 0-0.552 0.034-0.813 0.099 0.175-1.539 0.78-2.911 1.692-4.022l-0.011 0.014c3.641 0.449 6.431 3.523 6.431 7.249 0 0 0 0 0 0.001v-0 5.327c-0.132 0.008-0.287 0.013-0.442 0.013-2.882 0-5.396-1.58-6.721-3.921l-0.020-0.038h3.224v-1.381c-0-1.844-1.495-3.339-3.34-3.34h-0z">
            </path>
            <path fill="#fff" style="fill: var(--color2, #fff)"
                d="M7.795 14.274c0-4.484 3.636-8.12 8.12-8.12 0.184 0 0.367 0.006 0.547 0.018l-0.025-0.001c-1.366 1.504-2.203 3.511-2.203 5.713 0 0.176 0.005 0.351 0.016 0.525l-0.001-0.024c-0.525 0.463-0.854 1.137-0.854 1.888 0 0.001 0 0.002 0 0.003v-0 0.56h1.36c1.198 3.267 4.337 5.6 8.020 5.6 0.429 0 0.849-0.031 1.261-0.093v3.453h-5.6v-3.36h-5.041v3.36h-5.6v-9.521z">
            </path>
        </symbol>

        <symbol id="icon-chevron-down" viewBox="0 0 28 32">
            <path
                d="M14 26c-0.512 0-1.024-0.195-1.414-0.586l-12-12c-0.781-0.781-0.781-2.047 0-2.828s2.047-0.781 2.828 0l10.586 10.589 10.587-10.588c0.781-0.781 2.047-0.781 2.828 0s0.781 2.047 0 2.828l-12 12c-0.391 0.391-0.903 0.584-1.416 0.584z">
            </path>
        </symbol>

        <symbol id="icon-search" viewBox="0 0 33 32">
            <path fill="none" style="stroke: var(--color1)" stroke-linejoin="round" stroke-linecap="round"
                stroke-miterlimit="4" stroke-width="2.6667"
                d="M14.667 25.333c5.891 0 10.667-4.776 10.667-10.667s-4.776-10.667-10.667-10.667v0c-5.891 0-10.667 4.776-10.667 10.667s4.776 10.667 10.667 10.667v0zM28 28l-5.8-5.8">
            </path>
        </symbol>

        <symbol id="icon-facebook" viewBox="0 0 32 32">
            <path fill="#fff" style="fill: var(--color1, #fff)" opacity="0.78"
                d="M17.864 27.996v-10.928h3.686l0.548-4.279h-4.233v-2.726c0-1.235 0.344-2.080 2.116-2.080h2.246v-3.815c-0.952-0.108-2.056-0.17-3.174-0.17-0.041 0-0.081 0-0.122 0l0.006-0c-3.258 0-5.496 1.99-5.496 5.641v3.14h-3.662v4.279h3.671v10.936h4.416z">
            </path>
        </symbol>

        <symbol id="icon-instagram" viewBox="0 0 32 32">
            <path fill="#fff" style="fill: var(--color1, #fff)" opacity="0.78"
                d="M15.998 9.836c-3.405 0-6.166 2.761-6.166 6.166s2.761 6.166 6.166 6.166v0c3.405 0 6.166-2.761 6.166-6.166s-2.761-6.166-6.166-6.166v0zM15.998 20.004c-0.025 0.001-0.055 0.001-0.084 0.001-2.212 0-4.005-1.793-4.005-4.005s1.793-4.005 4.005-4.005c0.030 0 0.059 0 0.089 0.001l-0.004-0c2.176 0.047 3.921 1.822 3.921 4.004s-1.745 3.957-3.917 4.004l-0.004 0zM22.408 11.047c0.794 0 1.438-0.644 1.438-1.438s-0.644-1.438-1.438-1.438v0c-0.794 0-1.438 0.644-1.438 1.438s0.644 1.438 1.438 1.438v0z">
            </path>
            <path fill="#fff" style="fill: var(--color1, #fff)" opacity="0.78"
                d="M27.378 8.148c-0.638-1.617-1.894-2.872-3.47-3.495l-0.042-0.014c-0.863-0.334-1.862-0.538-2.905-0.56l-0.009-0c-1.284-0.056-1.691-0.071-4.947-0.071s-3.674 0-4.947 0.071c-1.052 0.021-2.049 0.225-2.972 0.58l0.060-0.020c-1.617 0.636-2.874 1.892-3.497 3.468l-0.014 0.042c-0.334 0.864-0.537 1.863-0.558 2.907l-0 0.009c-0.057 1.282-0.075 1.689-0.075 4.946s0 3.671 0.075 4.947c0.022 1.053 0.225 2.052 0.579 2.976l-0.020-0.060c0.638 1.616 1.894 2.872 3.47 3.496l0.042 0.015c0.86 0.347 1.857 0.564 2.899 0.6l0.015 0c1.284 0.056 1.691 0.073 4.947 0.073s3.674 0 4.947-0.073c1.052-0.022 2.051-0.225 2.975-0.579l-0.060 0.020c1.616-0.639 2.872-1.895 3.497-3.469l0.015-0.042c0.334-0.864 0.537-1.862 0.558-2.906l0-0.009c0.057-1.283 0.075-1.689 0.075-4.947s0-3.671-0.075-4.947c-0.017-1.066-0.222-2.080-0.582-3.016l0.020 0.060zM25.753 20.857c-0.009 0.81-0.16 1.583-0.43 2.297l0.015-0.046c-0.414 1.052-1.231 1.868-2.256 2.272l-0.027 0.009c-0.661 0.253-1.424 0.404-2.222 0.414l-0.004 0c-1.267 0.059-1.624 0.074-4.872 0.074-3.251 0-3.582 0-4.874-0.074-0.802-0.010-1.565-0.161-2.27-0.429l0.045 0.015c-1.056-0.411-1.876-1.228-2.282-2.255l-0.009-0.027c-0.25-0.66-0.401-1.423-0.415-2.219l-0-0.006c-0.057-1.267-0.071-1.624-0.071-4.872 0-3.25 0-3.582 0.071-4.874 0.009-0.768 0.148-1.529 0.415-2.249 0.415-1.054 1.236-1.871 2.264-2.273l0.027-0.009c0.66-0.252 1.424-0.403 2.221-0.415l0.005-0c1.268-0.057 1.623-0.073 4.873-0.073s3.582 0 4.872 0.073c0.802 0.010 1.566 0.161 2.272 0.43l-0.045-0.015c1.052 0.414 1.869 1.231 2.273 2.256l0.009 0.027c0.262 0.713 0.403 1.466 0.414 2.225 0.058 1.268 0.072 1.624 0.072 4.874 0 3.248 0 3.597-0.057 4.872h-0.015v-0.002z">
            </path>
        </symbol>

        <symbol id="icon-twitter" viewBox="0 0 32 32">
            <path fill="#fff" style="fill: var(--color1, #fff)" opacity="0.78"
                d="M26.178 10.663c0.017 0.233 0.017 0.465 0.017 0.697 0 7.1-5.404 15.282-15.28 15.282-3.043 0-5.869-0.882-8.248-2.412 0.432 0.050 0.848 0.067 1.298 0.067 2.417 0.006 4.765-0.803 6.668-2.294-2.34-0.044-4.312-1.575-5.011-3.686l-0.011-0.038c0.332 0.050 0.665 0.083 1.014 0.083 0.482 0 0.965-0.067 1.414-0.182-2.473-0.513-4.305-2.674-4.305-5.262 0-0.003 0-0.006 0-0.009v0-0.067c0.716 0.399 1.547 0.649 2.427 0.682-1.452-0.975-2.396-2.611-2.396-4.468 0-0.002 0-0.003 0-0.005v0c0-0.997 0.266-1.912 0.731-2.709 2.662 3.256 6.599 5.385 11.038 5.618l0.038 0.002c-0.082-0.369-0.13-0.793-0.133-1.228v-0.002c0-0.001 0-0.002 0-0.003 0-2.965 2.403-5.368 5.368-5.368 0.001 0 0.001 0 0.002 0h-0c1.547 0 2.943 0.648 3.924 1.696 1.285-0.254 2.427-0.704 3.456-1.324l-0.048 0.027c-0.416 1.263-1.251 2.292-2.338 2.947l-0.024 0.013c1.146-0.134 2.191-0.427 3.16-0.859l-0.068 0.027c-0.749 1.082-1.64 2.001-2.661 2.756l-0.031 0.022z">
            </path>
        </symbol>

        <symbol id="icon-figma" viewBox="0 0 32 32">
            <path fill="#19bcfe" style="fill: var(--color1, #19bcfe)" opacity="0.78"
                d="M21.334 21.334c2.945 0 5.333-2.388 5.333-5.334s-2.387-5.334-5.333-5.334-5.334 2.389-5.334 5.334 2.388 5.334 5.334 5.334z">
            </path>
            <path fill="#09cf83" style="fill: var(--color2, #09cf83)" opacity="0.78"
                d="M10.666 32c2.946 0 5.334-2.388 5.334-5.334v0-5.333h-5.334c-0.015-0-0.033-0-0.052-0-2.946 0-5.333 2.388-5.333 5.334s2.388 5.334 5.333 5.334c0.018 0 0.036-0 0.054-0l-0.003 0z">
            </path>
            <path fill="#a259ff" style="fill: var(--color3, #a259ff)" opacity="0.78"
                d="M10.666 21.334h5.334v-10.667h-5.334c-2.946 0-5.333 2.388-5.333 5.333s2.388 5.334 5.333 5.334v0z">
            </path>
            <path fill="#f24e1e" style="fill: var(--color4, #f24e1e)" opacity="0.78"
                d="M10.666 10.666h5.334v-10.666h-5.334c-0.015-0-0.033-0-0.052-0-2.946 0-5.333 2.388-5.333 5.333s2.388 5.334 5.333 5.334c0.018 0 0.036-0 0.054-0l-0.003 0z">
            </path>
            <path fill="#ff7262" style="fill: var(--color5, #ff7262)" opacity="0.78"
                d="M21.334 10.666h-5.334v-10.666h5.334c2.923 0.029 5.282 2.406 5.282 5.333s-2.359 5.304-5.279 5.333l-0.003 0z">
            </path>
        </symbol>

        <symbol id="icon-sketch" viewBox="0 0 36 32">
            <path fill="#fdb300" style="fill: var(--color7, #fdb300)"
                d="M17.965 0l-10.125 1.051-7.839 10.333 17.965 20.541 17.965-20.542-7.839-10.332-10.125-1.052z"></path>
            <path fill="#eb6c00" style="fill: var(--color8, #eb6c00)"
                d="M0 11.384l17.965 20.542-10.688-20.542h-7.277zM28.653 11.384l-10.688 20.542 17.965-20.542h-7.277z">
            </path>
            <path fill="#fdad00" style="fill: var(--color9, #fdad00)"
                d="M7.277 11.384l10.688 20.542 10.689-20.542h-21.377z"></path>
            <path fill="#fdd231" style="fill: var(--color10, #fdd231)"
                d="M7.839 1.051l-0.564 10.333 10.689-11.384-10.125 1.051zM28.653 11.384l-0.563-10.333-10.125-1.051 10.688 11.384z">
            </path>
            <path fill="#fdad00" style="fill: var(--color9, #fdad00)"
                d="M28.653 11.384h7.277l-7.839-10.333 0.563 10.333zM0 11.384h7.276l0.563-10.333-7.839 10.333z"></path>
            <path fill="#feeeb7" style="fill: var(--color11, #feeeb7)"
                d="M17.965 0l-10.688 11.384h21.377l-10.689-11.384z"></path>
        </symbol>

        <symbol id="icon-vscode" viewBox="0 0 33 32">
            <path fill="#0065a9" style="fill: var(--color12, #0065a9)" opacity="0.78"
                d="M31.744 3.378l-6.776-3.18c-0.26-0.125-0.566-0.198-0.888-0.198-0.121 0-0.24 0.010-0.356 0.030l0.012-0.002c-0.434 0.073-0.812 0.271-1.106 0.557l0-0-22.183 19.708c-0.275 0.242-0.447 0.594-0.447 0.987s0.173 0.746 0.447 0.987l0.002 0.001 1.812 1.605c0.229 0.203 0.529 0.332 0.858 0.346l0.003 0c0.32 0.014 0.634-0.081 0.889-0.27l26.714-19.747c0.896-0.662 2.184-0.040 2.184 1.056v-0.077c0-0.377-0.11-0.747-0.315-1.066-0.209-0.32-0.497-0.572-0.837-0.734l-0.012-0.005z">
            </path>
            <path fill="#007acc" style="fill: var(--color13, #007acc)" opacity="0.78"
                d="M31.744 28.503l-6.776 3.179c-0.26 0.125-0.566 0.198-0.889 0.198-0.121 0-0.24-0.010-0.356-0.030l0.012 0.002c-0.434-0.073-0.812-0.271-1.106-0.557l0 0-22.183-19.708c-0.275-0.242-0.447-0.594-0.447-0.987s0.173-0.746 0.447-0.987l0.002-0.001 1.812-1.605c0.229-0.203 0.529-0.332 0.858-0.346l0.003-0c0.32-0.014 0.634 0.081 0.889 0.27l26.713 19.747c0.896 0.662 2.184 0.040 2.184-1.056v0.077c-0 0.396-0.118 0.765-0.32 1.073l0.005-0.008c-0.209 0.32-0.497 0.572-0.837 0.734l-0.012 0.005z">
            </path>
            <path fill="#1f9cf0" style="fill: var(--color14, #1f9cf0)" opacity="0.78"
                d="M24.946 31.685c-0.26 0.125-0.566 0.198-0.889 0.198-0.121 0-0.24-0.010-0.356-0.030l0.012 0.002c-0.434-0.073-0.812-0.272-1.106-0.557l0 0c0.758 0.739 2.055 0.215 2.055-0.83v-29.050c0-1.045-1.297-1.569-2.055-0.829 0.293-0.285 0.671-0.484 1.093-0.555l0.012-0.002c0.103-0.018 0.222-0.028 0.344-0.028 0.323 0 0.628 0.073 0.901 0.203l-0.013-0.005 6.775 3.175c0.352 0.167 0.64 0.419 0.845 0.731l0.005 0.008c0.197 0.301 0.315 0.67 0.315 1.066v21.526c0 0.77-0.452 1.471-1.164 1.805l-6.775 3.175z">
            </path>
            <path fill="#000" style="fill: var(--color15, #000)" opacity="0.195"
                d="M23.321 31.744c0.221 0.086 0.476 0.136 0.744 0.136 0.322 0 0.628-0.073 0.901-0.203l-0.013 0.005 6.771-3.175c0.352-0.167 0.64-0.419 0.844-0.731l0.005-0.008c0.206-0.32 0.315-0.689 0.315-1.066v-21.526c0-0.377-0.109-0.747-0.315-1.066-0.209-0.32-0.497-0.572-0.836-0.734l-0.012-0.005-6.771-3.175c-0.26-0.125-0.566-0.198-0.888-0.198-0.122 0-0.241 0.010-0.356 0.030l0.012-0.002c-0.434 0.073-0.812 0.272-1.105 0.557l0-0-12.963 11.523-5.646-4.176c-0.228-0.17-0.516-0.272-0.827-0.272-0.022 0-0.044 0-0.065 0.002l0.003-0c-0.332 0.014-0.631 0.143-0.861 0.347l0.001-0.001-1.811 1.605c-0.275 0.242-0.448 0.595-0.448 0.988s0.172 0.745 0.445 0.986l0.001 0.001 4.896 4.353-4.896 4.352c-0.275 0.242-0.447 0.594-0.447 0.987s0.173 0.746 0.447 0.987l0.001 0.001 1.811 1.605c0.229 0.203 0.529 0.331 0.858 0.345l0.003 0c0.019 0.001 0.040 0.001 0.062 0.001 0.311 0 0.598-0.102 0.83-0.274l-0.004 0.003 5.646-4.176 12.962 11.523c0.2 0.196 0.44 0.348 0.704 0.448zM24.67 8.665l-9.835 7.275 9.835 7.274v-14.549z">
            </path>
        </symbol>

        <symbol id="icon-notion" viewBox="0 0 32 32">
            <path fill="#fff" style="fill: var(--color6, #fff)" opacity="0.78"
                d="M5.716 29.218l-3.439-4.285c-0.793-0.976-1.274-2.233-1.276-3.602v-15.516c0-1.954 1.563-3.576 3.581-3.714l15.951-1.089c0.108-0.008 0.234-0.013 0.361-0.013 1.083 0 2.088 0.331 2.92 0.897l-0.018-0.012 5.604 3.789c1.003 0.678 1.601 1.787 1.601 2.97v17.639c0 1.913-1.538 3.497-3.512 3.618l-17.704 1.090c-1.576 0.096-3.099-0.567-4.067-1.773z">
            </path>
            <path fill="#000" style="fill: var(--color15, #000)" opacity="0.78"
                d="M11.248 13.579v-0.203c0-0.515 0.412-0.942 0.944-0.978l3.872-0.258 5.354 7.884v-6.919l-1.378-0.184v-0.097c0-0.521 0.422-0.951 0.96-0.979l3.523-0.18v0.506c-0.003 0.244-0.183 0.445-0.417 0.482l-0.003 0-0.848 0.143v11.205l-1.064 0.366c-0.889 0.305-1.878-0.021-2.387-0.789l-5.197-7.843v7.486l1.6 0.306-0.023 0.148c-0.070 0.465-0.471 0.817-0.957 0.838l-3.979 0.177c-0.053-0.5 0.322-0.947 0.839-1.001l0.524-0.055v-9.982l-1.363-0.076z">
            </path>
            <path fill="#000" style="fill: var(--color15, #000)" opacity="0.78"
                d="M20.675 2.967l-15.951 1.089c-0.955 0.065-1.696 0.833-1.696 1.759v15.515c0 0.87 0.3 1.715 0.851 2.402l3.439 4.285c0.556 0.692 1.431 1.074 2.337 1.018l17.704-1.090c0.907-0.055 1.614-0.783 1.614-1.662v-17.639c-0.003-0.567-0.292-1.066-0.73-1.361l-0.006-0.004-5.604-3.789c-0.489-0.333-1.092-0.531-1.741-0.531-0.076 0-0.152 0.003-0.227 0.008l0.010-0.001zM5.515 6.057c-0.223-0.165-0.117-0.506 0.162-0.527l15.105-1.083c0.045-0.004 0.098-0.006 0.152-0.006 0.449 0 0.864 0.142 1.204 0.384l-0.006-0.004 3.031 2.147c0.115 0.082 0.061 0.258-0.081 0.265l-15.996 0.87c-0.035 0.002-0.076 0.003-0.117 0.003-0.463 0-0.891-0.152-1.236-0.408l0.006 0.004-2.223-1.646zM8.334 10.831c0-0.52 0.42-0.949 0.957-0.978l16.913-0.921c0.523-0.028 0.964 0.374 0.964 0.88v15.273c0 0.519-0.419 0.948-0.954 0.979l-16.805 0.956c-0.582 0.033-1.073-0.415-1.073-0.978v-15.211z">
            </path>
        </symbol>

        <symbol id="icon-slack" viewBox="0 0 33 32">
            <path fill="#e01e5a" style="fill: var(--color1, #e01e5a)" opacity="0.78"
                d="M6.836 20.11c0 0.439-0.088 0.873-0.258 1.279-0.181 0.423-0.431 0.783-0.738 1.084l-0.001 0.001c-0.309 0.303-0.676 0.548-1.082 0.716l-0.023 0.008c-0.384 0.16-0.831 0.253-1.299 0.253-0.002 0-0.003 0-0.005 0h0c-0.447 0-0.89-0.087-1.303-0.255-0.429-0.177-0.796-0.422-1.106-0.725l0.001 0.001c-0.307-0.302-0.556-0.662-0.729-1.063l-0.008-0.022c-0.163-0.377-0.259-0.816-0.259-1.278 0-0 0-0.001 0-0.001v0c0-0.439 0.087-0.874 0.259-1.28 0.181-0.422 0.43-0.783 0.737-1.084l0.001-0.001c0.309-0.303 0.676-0.548 1.082-0.716l0.023-0.008c0.384-0.16 0.831-0.253 1.299-0.253 0.001 0 0.003 0 0.004 0h3.405v3.343h-0.001zM8.538 20.11c0-0.439 0.088-0.875 0.258-1.28 0.181-0.423 0.43-0.783 0.737-1.084l0.001-0c0.309-0.303 0.676-0.548 1.082-0.716l0.023-0.008c0.384-0.16 0.831-0.253 1.299-0.253 0.001 0 0.003 0 0.004 0h-0c0.447-0 0.89 0.085 1.303 0.253 0.429 0.177 0.796 0.422 1.106 0.726l-0.001-0c0.308 0.302 0.557 0.662 0.73 1.063l0.008 0.022c0.171 0.405 0.258 0.84 0.258 1.28v8.357c0 0.439-0.088 0.874-0.258 1.28-0.181 0.423-0.43 0.783-0.737 1.084l-0.001 0.001c-0.309 0.303-0.676 0.548-1.082 0.716l-0.023 0.008c-0.384 0.16-0.831 0.253-1.299 0.253-0.001 0-0.003 0-0.004 0h0c-0.447 0-0.89-0.086-1.303-0.254-0.429-0.177-0.796-0.422-1.106-0.725l0.001 0.001c-0.308-0.302-0.557-0.662-0.729-1.063l-0.008-0.022c-0.163-0.377-0.258-0.816-0.258-1.278 0-0.001 0-0.001 0-0.002v0-8.357z">
            </path>
            <path fill="#36c5f0" style="fill: var(--color2, #36c5f0)" opacity="0.78"
                d="M11.943 6.687c-0.447 0-0.89-0.086-1.303-0.254-0.429-0.177-0.796-0.422-1.106-0.726l0.001 0c-0.308-0.302-0.557-0.662-0.73-1.063l-0.008-0.022c-0.163-0.377-0.258-0.816-0.258-1.277 0-0.001 0-0.002 0-0.003v0c0-0.44 0.088-0.874 0.258-1.28 0.181-0.423 0.43-0.783 0.737-1.085l0.001-0c0.309-0.303 0.676-0.548 1.082-0.716l0.023-0.008c0.384-0.16 0.831-0.254 1.299-0.254 0.001 0 0.002 0 0.003 0h-0c0.447 0 0.89 0.086 1.303 0.254 0.429 0.177 0.796 0.422 1.106 0.726l-0.001-0c0.308 0.302 0.557 0.662 0.73 1.063l0.008 0.022c0.171 0.405 0.258 0.84 0.258 1.279v3.345l-3.405-0.001zM11.943 8.383c0.447 0 0.89 0.086 1.303 0.254 0.429 0.177 0.796 0.422 1.106 0.726l-0.001-0.001c0.308 0.302 0.557 0.662 0.73 1.063l0.008 0.022c0.171 0.405 0.258 0.84 0.258 1.279s-0.088 0.874-0.258 1.28c-0.181 0.423-0.43 0.783-0.737 1.085l-0.001 0.001c-0.309 0.303-0.676 0.547-1.082 0.716l-0.023 0.008c-0.385 0.161-0.832 0.254-1.3 0.254-0.001 0-0.002 0-0.003 0h-8.538c-0.447 0-0.89-0.086-1.303-0.254-0.429-0.177-0.796-0.422-1.106-0.725l0.001 0.001c-0.307-0.302-0.556-0.662-0.729-1.063l-0.008-0.022c-0.164-0.378-0.259-0.818-0.259-1.28s0.095-0.901 0.267-1.3l-0.008 0.021c0.181-0.423 0.43-0.783 0.737-1.084l0.001-0.001c0.309-0.303 0.676-0.548 1.082-0.716l0.023-0.008c0.385-0.161 0.832-0.254 1.301-0.254 0.001 0 0.002 0 0.003 0l8.538-0.001z">
            </path>
            <path fill="#2eb67d" style="fill: var(--color3, #2eb67d)" opacity="0.78"
                d="M25.587 11.726c0-0.439 0.087-0.874 0.259-1.28 0.181-0.423 0.43-0.783 0.737-1.084l0.001-0.001c0.309-0.303 0.676-0.548 1.083-0.716l0.023-0.008c0.384-0.16 0.831-0.254 1.299-0.254 0.002 0 0.003 0 0.005 0h-0c0.448 0 0.89 0.086 1.303 0.254 0.429 0.177 0.796 0.422 1.106 0.726l-0.001-0.001c0.308 0.302 0.557 0.662 0.729 1.063l0.008 0.022c0.171 0.405 0.259 0.84 0.258 1.279s-0.087 0.874-0.258 1.28c-0.181 0.423-0.43 0.783-0.737 1.085l-0.001 0.001c-0.309 0.303-0.676 0.547-1.082 0.716l-0.023 0.008c-0.385 0.161-0.832 0.254-1.3 0.254-0.001 0-0.002 0-0.003 0h-3.405v-3.343zM23.884 11.726c0 0.439-0.087 0.874-0.258 1.28-0.181 0.423-0.43 0.783-0.737 1.085l-0.001 0.001c-0.309 0.303-0.676 0.547-1.082 0.716l-0.023 0.008c-0.385 0.161-0.832 0.254-1.3 0.254-0.001 0-0.002 0-0.003 0h0c-0.001 0-0.003 0-0.005 0-0.468 0-0.915-0.093-1.322-0.262l0.023 0.008c-0.429-0.177-0.796-0.422-1.106-0.725l0.001 0.001c-0.308-0.302-0.557-0.662-0.73-1.063l-0.008-0.022c-0.163-0.377-0.259-0.816-0.259-1.278 0-0.001 0-0.002 0-0.002v0-8.383c0-0.439 0.087-0.874 0.259-1.28 0.181-0.423 0.431-0.783 0.738-1.084l0.001-0.001c0.309-0.303 0.676-0.547 1.082-0.716l0.023-0.008c0.384-0.16 0.831-0.254 1.299-0.254 0.002 0 0.003 0 0.005 0h-0c0.447 0 0.89 0.086 1.303 0.254 0.429 0.177 0.796 0.422 1.106 0.726l-0.001-0c0.308 0.302 0.557 0.662 0.73 1.063l0.008 0.022c0.171 0.405 0.259 0.84 0.258 1.279v8.383z">
            </path>
            <path fill="#ecb22e" style="fill: var(--color4, #ecb22e)" opacity="0.78"
                d="M20.48 25.123c0.448 0 0.89 0.086 1.303 0.254 0.429 0.177 0.796 0.422 1.106 0.725l-0.001-0.001c0.308 0.302 0.557 0.662 0.729 1.063l0.008 0.022c0.171 0.405 0.259 0.84 0.259 1.279 0 0.001 0 0.002 0 0.003 0 0.461-0.095 0.9-0.266 1.298l0.008-0.021c-0.181 0.423-0.43 0.783-0.737 1.084l-0 0c-0.309 0.303-0.676 0.548-1.082 0.717l-0.023 0.008c-0.385 0.161-0.832 0.254-1.301 0.254-0.001 0-0.002 0-0.003 0h0c-0.448 0-0.89-0.086-1.304-0.254-0.429-0.177-0.796-0.422-1.106-0.726l0.001 0c-0.308-0.302-0.557-0.662-0.729-1.063l-0.008-0.022c-0.163-0.377-0.258-0.816-0.258-1.277 0-0.001 0-0.002 0-0.003v0-3.343h3.404zM20.48 23.453c-0.447 0-0.89-0.086-1.303-0.254-0.429-0.177-0.796-0.422-1.106-0.725l0.001 0.001c-0.308-0.302-0.557-0.662-0.729-1.063l-0.008-0.022c-0.163-0.377-0.259-0.816-0.259-1.278 0-0.001 0-0.001 0-0.002v0c0-0.439 0.087-0.874 0.259-1.28 0.181-0.422 0.43-0.783 0.737-1.084l0.001-0.001c0.309-0.303 0.676-0.548 1.082-0.716l0.023-0.008c0.384-0.16 0.831-0.253 1.299-0.253 0.001 0 0.003 0 0.004 0h8.538c0.447-0 0.89 0.085 1.303 0.253 0.429 0.177 0.796 0.422 1.106 0.726l-0.001-0c0.308 0.302 0.557 0.662 0.73 1.063l0.008 0.022c0.171 0.405 0.258 0.84 0.258 1.28 0.001 0.439-0.087 0.873-0.258 1.279-0.181 0.423-0.43 0.783-0.737 1.084l-0.001 0c-0.309 0.303-0.676 0.548-1.082 0.717l-0.023 0.008c-0.384 0.16-0.831 0.253-1.299 0.253-0.001 0-0.003 0-0.004 0h-8.538z">
            </path>
        </symbol>

        <symbol id="icon-invision" viewBox="0 0 33 32">
            <path fill="#f06" style="fill: var(--color5, #f06)" opacity="0.78"
                d="M0 2c0-1.105 0.895-2 2-2v0h28.5c1.105 0 2 0.895 2 2v0 27.912c0 1.105-0.895 2-2 2v0h-28.5c-1.105 0-2-0.895-2-2v0-27.912z">
            </path>
            <path fill="#fff" style="fill: var(--color6, #fff)" opacity="0.78"
                d="M11.059 10.269c1.028-0.015 1.851-0.842 1.841-1.851s-0.848-1.822-1.877-1.816c-1.028 0.005-1.859 0.825-1.859 1.834 0.001 0.243 0.050 0.483 0.146 0.707s0.236 0.427 0.412 0.598c0.177 0.171 0.385 0.305 0.615 0.396 0.229 0.091 0.475 0.136 0.722 0.133zM7.129 20.089c-0.103 0.412-0.163 0.887-0.167 1.375l-0 0.003c0 1.615 0.891 2.686 2.787 2.686 1.572 0 2.847-0.916 3.764-2.397l-0.56 2.209h3.12l1.785-7.020c0.445-1.78 1.308-2.703 2.619-2.703 1.031 0 1.672 0.63 1.672 1.67 0 0.014 0 0.031 0 0.049 0 0.334-0.051 0.656-0.145 0.959l0.006-0.023-0.919 3.229c-0.124 0.403-0.195 0.866-0.195 1.346 0 0.008 0 0.015 0 0.023v-0.001c0 1.532 0.919 2.655 2.842 2.655 1.645 0 2.955-1.039 3.679-3.529l-1.226-0.466c-0.613 1.669-1.143 1.971-1.56 1.971s-0.642-0.273-0.642-0.82c0.013-0.307 0.063-0.598 0.145-0.874l-0.006 0.025 0.893-3.146c0.201-0.646 0.304-1.319 0.307-1.995 0-2.354-1.45-3.582-3.206-3.582-1.645 0-3.316 1.456-4.152 2.989l0.612-2.752h-4.764l-0.669 2.425h2.231l-1.373 5.393c-1.079 2.354-3.060 2.392-3.309 2.337-0.408-0.090-0.668-0.242-0.668-0.766 0.012-0.424 0.078-0.845 0.195-1.252l2.090-8.143h-5.293l-0.668 2.425h2.201l-1.423 5.702z">
            </path>
        </symbol>

        <symbol id="icon-like" viewBox="0 0 32 32">
            <path
                d="M22.666 6c-2.8 0-5.266 1.4-6.666 3.6-1.4-2.2-3.866-3.6-6.666-3.6-4.4 0-8 3.6-8 8 0 7.934 14.666 16 14.666 16s14.666-8 14.666-16c0-4.4-3.6-8-8-8z">
            </path>
        </symbol>

        <symbol id="icon-folder" viewBox="0 0 32 32">
            <path fill="#fff" style="fill: var(--color1, #fff)" opacity="0.38"
                d="M18.667 17.333h-1.333v-1.333c0-0.736-0.597-1.333-1.333-1.333s-1.333 0.597-1.333 1.333v0 1.333h-1.333c-0.736 0-1.333 0.597-1.333 1.333s0.597 1.333 1.333 1.333v0h1.333v1.333c0 0.736 0.597 1.333 1.333 1.333s1.333-0.597 1.333-1.333v0-1.333h1.333c0.736 0 1.333-0.597 1.333-1.333s-0.597-1.333-1.333-1.333v0z">
            </path>
            <path fill="#fff" style="fill: var(--color1, #fff)" opacity="0.38"
                d="M26 9.399h-9.333l-3.506-4.24c-0.245-0.3-0.614-0.49-1.027-0.493h-6.134c-0.012-0-0.027-0-0.041-0-1.8 0-3.263 1.444-3.292 3.237l-0 0.003v16.187c0.030 1.796 1.493 3.241 3.293 3.241 0.014 0 0.028-0 0.042-0l-0.002 0h20c0.012 0 0.026 0 0.040 0 1.8 0 3.264-1.445 3.293-3.238l0-0.003v-11.453c-0.030-1.796-1.493-3.241-3.293-3.241-0.014 0-0.028 0-0.042 0l0.002-0zM26.667 24.066c-0.020 0.322-0.286 0.576-0.611 0.576-0.020 0-0.039-0.001-0.058-0.003l0.002 0h-20c-0.016 0.002-0.035 0.002-0.054 0.002-0.326 0-0.592-0.254-0.612-0.575l-0-0.002v-16.16c0.021-0.322 0.287-0.575 0.612-0.575 0.019 0 0.038 0.001 0.057 0.003l-0.002-0h5.506l3.467 4.24c0.245 0.3 0.613 0.491 1.027 0.494h10c0.016-0.002 0.035-0.002 0.054-0.002 0.326 0 0.592 0.253 0.613 0.573l0 0.002v11.427z">
            </path>
        </symbol>
        <symbol id="icon-wordpress" viewBox="0 0 141 32">
            <path d="M81.83 12.506h-5.554v.585c1.737 0 2.017.369 2.017 2.556v3.942c0 2.186-.279 2.587-2.017 2.587-1.334-.185-2.233-.893-3.475-2.248l-1.427-1.54c1.923-.339 2.947-1.54 2.947-2.895 0-1.693-1.457-2.987-4.188-2.987h-5.461v.585c1.737 0 2.017.369 2.017 2.556v3.942c0 2.186-.279 2.587-2.017 2.587v.585h6.174v-.585c-1.737 0-2.016-.4-2.016-2.587v-1.108h.527l3.444 4.28h9.029c4.437 0 6.361-2.34 6.361-5.143s-1.924-5.112-6.361-5.112zm-13 5.02v-4.095h1.272c1.396 0 2.017.955 2.017 2.063 0 1.078-.621 2.032-2.017 2.032H68.83zm13.093 4.281h-.217c-1.116 0-1.271-.277-1.271-1.694V13.43h1.489c3.227 0 3.816 2.34 3.816 4.157 0 1.878-.589 4.219-3.816 4.219zM47.39 18.666l2.141-6.283c.621-1.817.341-2.34-1.644-2.34v-.616h5.833v.616c-1.955 0-2.42.462-3.196 2.71l-3.538 10.532h-.403l-3.165-9.639-3.227 9.639h-.403l-3.444-10.532c-.745-2.248-1.241-2.71-3.041-2.71v-.616h6.888v.616c-1.831 0-2.328.431-1.675 2.34l2.079 6.282 3.134-9.239h.59l3.072 9.239zm10.549 4.495c-3.413 0-6.205-2.494-6.205-5.543 0-3.018 2.793-5.512 6.205-5.512s6.205 2.495 6.205 5.512c0 3.049-2.792 5.543-6.205 5.543zm0-10.1c-2.854 0-3.847 2.556-3.847 4.557 0 2.033.993 4.558 3.847 4.558 2.886 0 3.879-2.525 3.879-4.558 0-2.002-.993-4.557-3.879-4.557zM95.854 22.145v.616h-7.105v-.616c2.079 0 2.452-.523 2.452-3.603v-4.927c0-3.08-.372-3.572-2.452-3.572v-.616h6.423c3.196 0 4.964 1.632 4.964 3.819 0 2.125-1.769 3.788-4.964 3.788h-1.769v1.508c0 3.08.372 3.604 2.452 3.604zm-.683-11.61h-1.769v5.359h1.769c1.737 0 2.545-1.201 2.545-2.648 0-1.478-.807-2.71-2.545-2.71zm26.28 9.331-.155.554c-.279 1.016-.621 1.386-2.824 1.386h-.435c-1.612 0-1.892-.37-1.892-2.556v-1.417c2.42 0 2.607.215 2.607 1.817h.59v-4.589h-.59c0 1.601-.186 1.817-2.607 1.817v-3.449h1.706c2.204 0 2.545.37 2.824 1.386l.156.585h.496l-.217-2.895h-9.123v.585c1.737 0 2.017.369 2.017 2.556v3.942c0 2-.238 2.504-1.607 2.576-1.302-.197-2.196-.902-3.419-2.237l-1.428-1.54c1.924-.339 2.948-1.54 2.948-2.895 0-1.693-1.459-2.987-4.189-2.987h-5.46v.585c1.737 0 2.017.369 2.017 2.556v3.942c0 2.186-.279 2.587-2.017 2.587v.585h6.175v-.585c-1.737 0-2.017-.4-2.017-2.587V18.48h.527l3.444 4.28h12.752l.187-2.894h-.466zm-16.444-2.34v-4.095h1.272c1.396 0 2.017.955 2.017 2.063 0 1.078-.621 2.032-2.017 2.032h-1.272zm22.742 5.635c-1.241 0-2.327-.647-2.793-1.047-.155.154-.434.616-.496 1.047h-.59v-4.249h.621c.248 2.032 1.675 3.233 3.506 3.233.993 0 1.799-.554 1.799-1.478 0-.8-.713-1.417-1.985-2.001l-1.769-.831c-1.241-.586-2.172-1.602-2.172-2.957 0-1.478 1.396-2.741 3.32-2.741 1.025 0 1.892.37 2.42.801.155-.123.311-.462.404-.832h.59v3.635h-.652c-.218-1.448-1.024-2.649-2.668-2.649-.869 0-1.676.493-1.676 1.263 0 .8.652 1.231 2.142 1.909l1.705.831c1.49.708 2.079 1.848 2.079 2.772 0 1.94-1.707 3.295-3.785 3.295zm9.556 0c-1.241 0-2.327-.647-2.793-1.047-.155.154-.434.616-.496 1.047h-.589v-4.249h.62c.248 2.032 1.676 3.233 3.506 3.233.993 0 1.8-.554 1.8-1.478 0-.8-.713-1.417-1.986-2.001l-1.769-.831c-1.241-.586-2.172-1.602-2.172-2.957 0-1.478 1.396-2.741 3.32-2.741 1.024 0 1.892.37 2.42.801.155-.123.31-.462.403-.832h.59v3.635h-.652c-.217-1.448-1.024-2.649-2.668-2.649-.868 0-1.676.493-1.676 1.263 0 .8.652 1.231 2.141 1.909l1.706.831c1.489.708 2.079 1.848 2.079 2.772 0 1.94-1.706 3.295-3.785 3.295zM2.275 15.886c0 5.395 3.159 10.056 7.739 12.266L3.464 10.34a13.501 13.501 0 0 0-1.189 5.547zm23.001-.688c0-1.684-.61-2.851-1.133-3.759-.696-1.122-1.348-2.073-1.348-3.196 0-1.253.957-2.419 2.306-2.419.061 0 .118.008.178.011a13.74 13.74 0 0 0-9.273-3.577A13.743 13.743 0 0 0 4.533 8.401c.322.009.626.016.884.016 1.436 0 3.66-.173 3.66-.173.74-.043.827 1.036.088 1.123 0 0-.744.087-1.572.13l5 14.762 3.005-8.945-2.139-5.817c-.739-.043-1.44-.13-1.44-.13-.74-.043-.653-1.166.086-1.122 0 0 2.268.173 3.617.173 1.436 0 3.66-.173 3.66-.173.74-.043.828 1.035.088 1.122 0 0-.745.087-1.572.13l4.962 14.65 1.37-4.543c.594-1.885 1.046-3.239 1.046-4.405zm-9.029 1.88-4.12 11.882a13.836 13.836 0 0 0 8.439-.218 1.198 1.198 0 0 1-.098-.188l-4.221-11.477zm11.808-7.73c.059.434.093.9.093 1.401 0 1.383-.26 2.937-1.044 4.881L22.91 27.666c4.082-2.363 6.828-6.752 6.828-11.78 0-2.37-.61-4.598-1.682-6.539zM16.006 0C7.18 0 0 7.126 0 15.886c0 8.761 7.181 15.887 16.006 15.887s16.007-7.126 16.007-15.887C32.013 7.126 24.831 0 16.006 0zm0 31.045c-8.421 0-15.273-6.8-15.273-15.159S7.584.728 16.006.728c8.421 0 15.272 6.8 15.272 15.158s-6.851 15.159-15.272 15.159z"/>
        </symbol>
        <symbol id="icon-clients-slack" viewBox="0 0 127 32">
            <path d="m40.481 25.079 1.58-3.652c1.708 1.268 3.977 1.927 6.22 1.927 1.657 0 2.702-.634 2.702-1.598-.026-2.688-9.916-.583-9.993-7.329-.025-3.423 3.034-6.061 7.367-6.061 2.575 0 5.149.634 6.985 2.079l-1.479 3.728c-1.682-1.065-3.773-1.826-5.761-1.826-1.351 0-2.243.634-2.243 1.445.026 2.637 9.993 1.192 10.095 7.633 0 3.5-2.982 5.959-7.265 5.959-3.136 0-6.016-.736-8.208-2.308zm60.645-4.97 4.359 2.409a9.512 9.512 0 0 1-8.336 4.869c-5.277 0-9.559-4.26-9.559-9.509s4.283-9.509 9.559-9.509a9.593 9.593 0 0 1 8.336 4.869l-4.359 2.409a4.591 4.591 0 0 0-3.977-2.307c-2.523 0-4.563 2.029-4.563 4.539s2.04 4.539 4.563 4.539a4.59 4.59 0 0 0 3.977-2.308h.001zM58.147.482h5.455v26.55h-5.455V.482zm49.479 0h5.456v15.595l6.169-7.329h6.679l-7.622 8.825 8.234 9.459h-6.984l-6.475-7.962v7.962h-5.456V.482zM79.815 20.16v-4.489c-.79-1.319-2.422-2.333-4.257-2.333-2.524 0-4.563 2.029-4.563 4.539s2.039 4.539 4.563 4.539c1.835 0 3.466-.964 4.257-2.257zm0-11.411h5.456v18.258h-5.456v-2.155c-.892 1.496-3.11 2.536-5.43 2.536-4.793 0-8.566-4.26-8.566-9.535s3.773-9.484 8.566-9.484c2.32 0 4.537 1.04 5.43 2.536V8.749zM6.755 20.134a3.353 3.353 0 0 1-3.365 3.347 3.384 3.384 0 0 1-2.38-.98 3.338 3.338 0 0 1-.984-2.368 3.353 3.353 0 0 1 3.365-3.347h3.365v3.347zm1.683 0c0-1.851 1.504-3.347 3.365-3.347s3.365 1.496 3.365 3.347v8.368a3.353 3.353 0 0 1-3.365 3.347 3.384 3.384 0 0 1-2.38-.98 3.338 3.338 0 0 1-.984-2.367v-8.368zM11.803 6.695a3.384 3.384 0 0 1-2.38-.98 3.338 3.338 0 0 1-.984-2.367c0-1.851 1.504-3.347 3.365-3.347s3.365 1.496 3.365 3.347v3.347h-3.365zm0 1.699c1.861 0 3.365 1.496 3.365 3.347s-1.504 3.347-3.365 3.347H3.365a3.384 3.384 0 0 1-2.38-.98 3.338 3.338 0 0 1-.984-2.367 3.353 3.353 0 0 1 3.365-3.347h8.438zM25.288 11.741c0-1.851 1.504-3.347 3.365-3.347s3.365 1.496 3.365 3.347-1.504 3.347-3.365 3.347h-3.365v-3.347zm-1.683 0a3.353 3.353 0 0 1-3.365 3.347 3.384 3.384 0 0 1-2.38-.98 3.338 3.338 0 0 1-.984-2.367V3.347C16.876 1.496 18.38 0 20.241 0s3.365 1.496 3.365 3.347v8.394zM20.24 25.155c1.861 0 3.365 1.496 3.365 3.347s-1.504 3.347-3.365 3.347a3.384 3.384 0 0 1-2.38-.98 3.332 3.332 0 0 1-.984-2.368v-3.347h3.365zm0-1.673a3.384 3.384 0 0 1-2.38-.98 3.338 3.338 0 0 1-.984-2.367 3.353 3.353 0 0 1 3.365-3.347h8.438c1.861 0 3.365 1.496 3.365 3.347s-1.504 3.347-3.365 3.347h-8.438z"/>
        </symbol>
        <symbol id="icon-google" viewBox="0 0 99 32">
            <path d="m95.442 19.557 2.733 1.804c-.887 1.293-3.009 3.512-6.677 3.512-4.554 0-7.946-3.489-7.946-7.926 0-4.723 3.428-7.926 7.563-7.926 4.159 0 6.197 3.275 6.856 5.043l.36.902-10.715 4.39c.814 1.59 2.086 2.397 3.883 2.397 1.798 0 3.044-.878 3.944-2.195zm-8.402-2.86 7.155-2.943c-.396-.985-1.57-1.685-2.973-1.685-1.786 0-4.267 1.566-4.183 4.628zM78.386.939h3.452v23.209h-3.452V.939zM72.944 9.637h3.332v14.097c0 5.85-3.487 8.259-7.611 8.259-3.883 0-6.22-2.587-7.095-4.687l3.056-1.258c.551 1.293 1.882 2.824 4.039 2.824 2.649 0 4.279-1.626 4.279-4.663V23.07h-.12c-.791.949-2.302 1.803-4.219 1.803-4.003 0-7.671-3.453-7.671-7.902 0-4.474 3.668-7.962 7.671-7.962 1.906 0 3.428.842 4.219 1.768h.12V9.638zm.24 7.333c0-2.8-1.882-4.841-4.279-4.841-2.421 0-4.459 2.041-4.459 4.841 0 2.765 2.038 4.77 4.459 4.77 2.397.012 4.279-2.005 4.279-4.77zM41.985 16.911c0 4.568-3.596 7.926-8.006 7.926s-8.006-3.37-8.006-7.926c0-4.592 3.596-7.938 8.006-7.938s8.006 3.346 8.006 7.938zm-3.5 0c0-2.848-2.086-4.806-4.507-4.806s-4.507 1.958-4.507 4.806c0 2.824 2.086 4.806 4.507 4.806s4.507-1.982 4.507-4.806zM59.472 16.946c0 4.568-3.596 7.926-8.006 7.926s-8.006-3.358-8.006-7.926c0-4.592 3.596-7.926 8.006-7.926s8.006 3.322 8.006 7.926zm-3.512 0c0-2.848-2.085-4.806-4.507-4.806s-4.507 1.958-4.507 4.806c0 2.824 2.086 4.806 4.507 4.806 2.433 0 4.507-1.994 4.507-4.806zM12.812 21.396c-5.022 0-8.953-4.011-8.953-8.982s3.931-8.982 8.953-8.982c2.709 0 4.686 1.056 6.149 2.409l2.409-2.385C19.332 1.522 16.612.05 12.812.05 5.932.05.143 5.604.143 12.414s5.789 12.364 12.669 12.364c3.716 0 6.52-1.21 8.714-3.465 2.253-2.231 2.948-5.363 2.948-7.903 0-.795-.096-1.614-.204-2.219H12.812v3.299h8.162c-.24 2.065-.899 3.477-1.87 4.438-1.175 1.175-3.032 2.468-6.292 2.468z"/>
        </symbol>
        <symbol id="icon-microsoft" viewBox="0 0 147 32">
            <path d="M147.012 14.381v-2.619h-3.211V7.691l-.108.034-3.075.953v3.085h-4.76v-1.718c0-.8.177-1.413.525-1.821.345-.404.84-.609 1.47-.609.453 0 .923.108 1.395.322l.119.053V5.232l-.056-.021c-.441-.161-1.041-.241-1.784-.241-.936 0-1.787.207-2.53.616s-1.326.994-1.736 1.738c-.408.743-.614 1.601-.614 2.55v1.889h-2.236v2.619h2.236v11.032h3.209V14.382h4.76v7.011c0 2.888 1.345 4.351 3.996 4.351a6.5 6.5 0 0 0 1.363-.153c.477-.104.801-.208.992-.319l.043-.025v-2.643l-.131.087a2.207 2.207 0 0 1-.645.285 2.41 2.41 0 0 1-.634.109c-.621 0-1.08-.17-1.366-.504-.289-.337-.434-.928-.434-1.754v-6.445h3.211zm-23.766 8.704c-1.164 0-2.083-.392-2.73-1.162-.651-.775-.981-1.879-.981-3.282 0-1.447.33-2.58.981-3.369.648-.783 1.557-1.181 2.704-1.181 1.113 0 1.999.38 2.633 1.129.638.753.962 1.877.962 3.342 0 1.482-.305 2.621-.904 3.383-.597.756-1.493 1.14-2.664 1.14zm.143-11.651c-2.222 0-3.988.659-5.246 1.96s-1.896 3.101-1.896 5.352c0 2.137.622 3.857 1.851 5.109s2.898 1.888 4.965 1.888c2.155 0 3.885-.669 5.143-1.988s1.895-3.101 1.895-5.299c0-2.171-.598-3.903-1.778-5.147-1.181-1.245-2.841-1.876-4.935-1.876zm-12.316 0c-1.512 0-2.762.392-3.717 1.164-.961.777-1.448 1.796-1.448 3.029 0 .641.105 1.21.312 1.693a3.4 3.4 0 0 0 .959 1.269c.425.355 1.081.727 1.95 1.106.731.305 1.276.562 1.622.765.339.199.579.399.715.594.132.191.199.451.199.774 0 .917-.678 1.363-2.073 1.363-.517 0-1.108-.109-1.755-.325a6.581 6.581 0 0 1-1.797-.923l-.133-.097v3.13l.049.023c.454.212 1.027.391 1.701.532s1.285.213 1.817.213c1.64 0 2.962-.394 3.925-1.171.97-.782 1.462-1.825 1.462-3.101 0-.92-.265-1.709-.786-2.346-.518-.631-1.417-1.211-2.672-1.723-.999-.406-1.639-.743-1.903-1.002-.254-.25-.384-.604-.384-1.051 0-.397.16-.715.488-.973.33-.259.789-.391 1.365-.391.535 0 1.082.085 1.626.253s1.022.392 1.42.667l.131.091v-2.969l-.05-.022c-.368-.16-.853-.296-1.442-.407a8.7 8.7 0 0 0-1.581-.165zM97.541 23.085c-1.165 0-2.083-.391-2.731-1.162-.651-.775-.981-1.879-.981-3.282 0-1.447.33-2.58.981-3.369.647-.783 1.557-1.181 2.704-1.181 1.112 0 1.998.38 2.633 1.129.637.753.961 1.877.961 3.342 0 1.482-.304 2.621-.904 3.383-.596.756-1.492 1.14-2.664 1.14zm.143-11.651c-2.223 0-3.989.659-5.246 1.96s-1.896 3.101-1.896 5.352c0 2.138.623 3.857 1.851 5.109s2.899 1.888 4.966 1.888c2.154 0 3.884-.669 5.142-1.988s1.896-3.101 1.896-5.299c0-2.171-.598-3.903-1.778-5.147s-2.841-1.876-4.934-1.876zM85.67 14.127v-2.364H82.5v13.651h3.17v-6.983c0-1.188.266-2.163.79-2.9.518-.728 1.208-1.097 2.05-1.097.286 0 .606.047.953.142.344.094.593.195.74.303l.133.098V11.74l-.051-.022c-.296-.127-.713-.191-1.242-.191-.796 0-1.509.259-2.12.77-.536.449-.923 1.064-1.22 1.831h-.034zm-8.847-2.693c-1.455 0-2.752.316-3.856.938a6.28 6.28 0 0 0-2.542 2.648c-.579 1.131-.873 2.451-.873 3.923 0 1.29.285 2.473.848 3.517a6.006 6.006 0 0 0 2.372 2.429c1.009.566 2.175.854 3.466.854 1.506 0 2.793-.305 3.824-.907l.042-.024V21.87l-.133.099a5.954 5.954 0 0 1-1.551.818c-.56.198-1.071.298-1.519.298-1.243 0-2.242-.395-2.967-1.172-.727-.778-1.095-1.871-1.095-3.247 0-1.384.384-2.505 1.141-3.332.754-.824 1.755-1.243 2.973-1.243 1.042 0 2.057.357 3.018 1.063l.133.098v-3.1l-.043-.025c-.361-.205-.854-.374-1.467-.502a8.65 8.65 0 0 0-1.772-.193h.001zm-9.455.329h-3.17v13.651h3.17V11.763zm-1.553-5.816a1.9 1.9 0 0 0-1.351.536 1.784 1.784 0 0 0-.566 1.339c0 .523.188.965.56 1.313.369.347.826.523 1.356.523s.989-.176 1.363-.523c.376-.348.567-.79.567-1.313 0-.513-.186-.959-.552-1.325s-.829-.551-1.378-.551zm-7.909 4.808v14.658h3.235V6.365h-4.477l-5.692 14.148-5.523-14.148h-4.66v19.048h3.04v-14.66h.105l5.833 14.659h2.294l5.741-14.658h.105zM14.914 15.106H0V0h14.914v15.106zM31.38 15.106H16.467V0H31.38v15.106zM14.913 31.791H0V16.685h14.913v15.106zM31.38 31.791H16.467V16.685H31.38v15.106z"/>
        </symbol>
    </defs>
</svg>